<mxfile host="app.diagrams.net" agent="Mozilla/5.0 (Windows NT 10.0; Win64; x64) AppleWebKit/537.36 (KHTML, like Gecko) Chrome/131.0.0.0 Safari/537.36" version="25.0.3">
  <diagram name="Страница — 1" id="t-bohV541Y8Q-_fa761e">
    <mxGraphModel dx="2868" dy="1544" grid="1" gridSize="10" guides="1" tooltips="1" connect="1" arrows="1" fold="1" page="1" pageScale="1" pageWidth="1654" pageHeight="1169" math="0" shadow="0">
      <root>
        <mxCell id="0" />
        <mxCell id="1" parent="0" />
        <mxCell id="GCyfZZmVZOQjBuuVVlXQ-1" value="S" style="ellipse;whiteSpace=wrap;html=1;aspect=fixed;" parent="1" vertex="1">
          <mxGeometry x="300" y="50" width="40" height="40" as="geometry" />
        </mxCell>
        <mxCell id="GCyfZZmVZOQjBuuVVlXQ-2" value="t" style="ellipse;whiteSpace=wrap;html=1;aspect=fixed;" parent="1" vertex="1">
          <mxGeometry x="50" y="130" width="40" height="40" as="geometry" />
        </mxCell>
        <mxCell id="GCyfZZmVZOQjBuuVVlXQ-3" value="f" style="ellipse;whiteSpace=wrap;html=1;aspect=fixed;" parent="1" vertex="1">
          <mxGeometry x="100" y="130" width="40" height="40" as="geometry" />
        </mxCell>
        <mxCell id="GCyfZZmVZOQjBuuVVlXQ-4" value="i" style="ellipse;whiteSpace=wrap;html=1;aspect=fixed;" parent="1" vertex="1">
          <mxGeometry x="150" y="130" width="40" height="40" as="geometry" />
        </mxCell>
        <mxCell id="GCyfZZmVZOQjBuuVVlXQ-5" value="(" style="ellipse;whiteSpace=wrap;html=1;aspect=fixed;" parent="1" vertex="1">
          <mxGeometry x="200" y="130" width="40" height="40" as="geometry" />
        </mxCell>
        <mxCell id="GCyfZZmVZOQjBuuVVlXQ-6" value="F" style="ellipse;whiteSpace=wrap;html=1;aspect=fixed;" parent="1" vertex="1">
          <mxGeometry x="250" y="130" width="40" height="40" as="geometry" />
        </mxCell>
        <mxCell id="GCyfZZmVZOQjBuuVVlXQ-7" value=")" style="ellipse;whiteSpace=wrap;html=1;aspect=fixed;" parent="1" vertex="1">
          <mxGeometry x="300" y="130" width="40" height="40" as="geometry" />
        </mxCell>
        <mxCell id="GCyfZZmVZOQjBuuVVlXQ-8" value="{" style="ellipse;whiteSpace=wrap;html=1;aspect=fixed;" parent="1" vertex="1">
          <mxGeometry x="350" y="130" width="40" height="40" as="geometry" />
        </mxCell>
        <mxCell id="GCyfZZmVZOQjBuuVVlXQ-9" value="N" style="ellipse;whiteSpace=wrap;html=1;aspect=fixed;" parent="1" vertex="1">
          <mxGeometry x="400" y="130" width="40" height="40" as="geometry" />
        </mxCell>
        <mxCell id="GCyfZZmVZOQjBuuVVlXQ-10" value="}" style="ellipse;whiteSpace=wrap;html=1;aspect=fixed;" parent="1" vertex="1">
          <mxGeometry x="450" y="130" width="40" height="40" as="geometry" />
        </mxCell>
        <mxCell id="GCyfZZmVZOQjBuuVVlXQ-11" value="S" style="ellipse;whiteSpace=wrap;html=1;aspect=fixed;" parent="1" vertex="1">
          <mxGeometry x="500" y="130" width="40" height="40" as="geometry" />
        </mxCell>
        <mxCell id="GCyfZZmVZOQjBuuVVlXQ-20" value="" style="endArrow=none;html=1;rounded=0;exitX=0.5;exitY=0;exitDx=0;exitDy=0;entryX=0.5;entryY=1;entryDx=0;entryDy=0;" parent="1" source="GCyfZZmVZOQjBuuVVlXQ-2" target="GCyfZZmVZOQjBuuVVlXQ-1" edge="1">
          <mxGeometry width="50" height="50" relative="1" as="geometry">
            <mxPoint x="136" y="150" as="sourcePoint" />
            <mxPoint x="186" y="100" as="targetPoint" />
          </mxGeometry>
        </mxCell>
        <mxCell id="GCyfZZmVZOQjBuuVVlXQ-21" value="" style="endArrow=none;html=1;rounded=0;exitX=0.5;exitY=0;exitDx=0;exitDy=0;entryX=0.5;entryY=1;entryDx=0;entryDy=0;" parent="1" source="GCyfZZmVZOQjBuuVVlXQ-3" target="GCyfZZmVZOQjBuuVVlXQ-1" edge="1">
          <mxGeometry width="50" height="50" relative="1" as="geometry">
            <mxPoint x="85" y="150" as="sourcePoint" />
            <mxPoint x="195" y="110" as="targetPoint" />
          </mxGeometry>
        </mxCell>
        <mxCell id="GCyfZZmVZOQjBuuVVlXQ-22" value="" style="endArrow=none;html=1;rounded=0;exitX=0.5;exitY=0;exitDx=0;exitDy=0;entryX=0.5;entryY=1;entryDx=0;entryDy=0;" parent="1" source="GCyfZZmVZOQjBuuVVlXQ-4" target="GCyfZZmVZOQjBuuVVlXQ-1" edge="1">
          <mxGeometry width="50" height="50" relative="1" as="geometry">
            <mxPoint x="145" y="150" as="sourcePoint" />
            <mxPoint x="220" y="110" as="targetPoint" />
          </mxGeometry>
        </mxCell>
        <mxCell id="GCyfZZmVZOQjBuuVVlXQ-23" value="" style="endArrow=none;html=1;rounded=0;exitX=0.5;exitY=0;exitDx=0;exitDy=0;entryX=0.5;entryY=1;entryDx=0;entryDy=0;" parent="1" source="GCyfZZmVZOQjBuuVVlXQ-5" target="GCyfZZmVZOQjBuuVVlXQ-1" edge="1">
          <mxGeometry width="50" height="50" relative="1" as="geometry">
            <mxPoint x="205" y="150" as="sourcePoint" />
            <mxPoint x="195" y="110" as="targetPoint" />
          </mxGeometry>
        </mxCell>
        <mxCell id="GCyfZZmVZOQjBuuVVlXQ-24" value="" style="endArrow=none;html=1;rounded=0;exitX=0.5;exitY=0;exitDx=0;exitDy=0;entryX=0.5;entryY=1;entryDx=0;entryDy=0;" parent="1" source="GCyfZZmVZOQjBuuVVlXQ-6" target="GCyfZZmVZOQjBuuVVlXQ-1" edge="1">
          <mxGeometry width="50" height="50" relative="1" as="geometry">
            <mxPoint x="265" y="150" as="sourcePoint" />
            <mxPoint x="200" y="110" as="targetPoint" />
          </mxGeometry>
        </mxCell>
        <mxCell id="GCyfZZmVZOQjBuuVVlXQ-25" value="" style="endArrow=none;html=1;rounded=0;exitX=0.5;exitY=0;exitDx=0;exitDy=0;entryX=0.5;entryY=1;entryDx=0;entryDy=0;" parent="1" source="GCyfZZmVZOQjBuuVVlXQ-7" target="GCyfZZmVZOQjBuuVVlXQ-1" edge="1">
          <mxGeometry width="50" height="50" relative="1" as="geometry">
            <mxPoint x="275" y="160" as="sourcePoint" />
            <mxPoint x="205" y="120" as="targetPoint" />
          </mxGeometry>
        </mxCell>
        <mxCell id="GCyfZZmVZOQjBuuVVlXQ-26" value="" style="endArrow=none;html=1;rounded=0;exitX=0.5;exitY=0;exitDx=0;exitDy=0;entryX=0.5;entryY=1;entryDx=0;entryDy=0;" parent="1" source="GCyfZZmVZOQjBuuVVlXQ-8" target="GCyfZZmVZOQjBuuVVlXQ-1" edge="1">
          <mxGeometry width="50" height="50" relative="1" as="geometry">
            <mxPoint x="385" y="150" as="sourcePoint" />
            <mxPoint x="195" y="110" as="targetPoint" />
          </mxGeometry>
        </mxCell>
        <mxCell id="GCyfZZmVZOQjBuuVVlXQ-27" value="" style="endArrow=none;html=1;rounded=0;exitX=0.5;exitY=0;exitDx=0;exitDy=0;entryX=0.5;entryY=1;entryDx=0;entryDy=0;" parent="1" source="GCyfZZmVZOQjBuuVVlXQ-9" target="GCyfZZmVZOQjBuuVVlXQ-1" edge="1">
          <mxGeometry width="50" height="50" relative="1" as="geometry">
            <mxPoint x="430" y="120" as="sourcePoint" />
            <mxPoint x="480" y="70" as="targetPoint" />
          </mxGeometry>
        </mxCell>
        <mxCell id="GCyfZZmVZOQjBuuVVlXQ-28" value="" style="endArrow=none;html=1;rounded=0;exitX=0.5;exitY=0;exitDx=0;exitDy=0;entryX=0.5;entryY=1;entryDx=0;entryDy=0;" parent="1" source="GCyfZZmVZOQjBuuVVlXQ-10" target="GCyfZZmVZOQjBuuVVlXQ-1" edge="1">
          <mxGeometry width="50" height="50" relative="1" as="geometry">
            <mxPoint x="520" y="130" as="sourcePoint" />
            <mxPoint x="570" y="80" as="targetPoint" />
          </mxGeometry>
        </mxCell>
        <mxCell id="GCyfZZmVZOQjBuuVVlXQ-29" value="" style="endArrow=none;html=1;rounded=0;exitX=0.5;exitY=0;exitDx=0;exitDy=0;entryX=0.5;entryY=1;entryDx=0;entryDy=0;" parent="1" source="GCyfZZmVZOQjBuuVVlXQ-11" target="GCyfZZmVZOQjBuuVVlXQ-1" edge="1">
          <mxGeometry width="50" height="50" relative="1" as="geometry">
            <mxPoint x="570" y="120" as="sourcePoint" />
            <mxPoint x="620" y="70" as="targetPoint" />
          </mxGeometry>
        </mxCell>
        <mxCell id="GCyfZZmVZOQjBuuVVlXQ-30" value="t" style="ellipse;whiteSpace=wrap;html=1;aspect=fixed;" parent="1" vertex="1">
          <mxGeometry x="50" y="205" width="40" height="40" as="geometry" />
        </mxCell>
        <mxCell id="GCyfZZmVZOQjBuuVVlXQ-31" value="i" style="ellipse;whiteSpace=wrap;html=1;aspect=fixed;" parent="1" vertex="1">
          <mxGeometry x="100" y="205" width="40" height="40" as="geometry" />
        </mxCell>
        <mxCell id="GCyfZZmVZOQjBuuVVlXQ-32" value="," style="ellipse;whiteSpace=wrap;html=1;aspect=fixed;" parent="1" vertex="1">
          <mxGeometry x="150" y="205" width="40" height="40" as="geometry" />
        </mxCell>
        <mxCell id="GCyfZZmVZOQjBuuVVlXQ-33" value="F" style="ellipse;whiteSpace=wrap;html=1;aspect=fixed;" parent="1" vertex="1">
          <mxGeometry x="200" y="205" width="40" height="40" as="geometry" />
        </mxCell>
        <mxCell id="GCyfZZmVZOQjBuuVVlXQ-34" value="" style="endArrow=none;html=1;rounded=0;entryX=0.5;entryY=1;entryDx=0;entryDy=0;exitX=0.5;exitY=0;exitDx=0;exitDy=0;" parent="1" source="GCyfZZmVZOQjBuuVVlXQ-33" target="GCyfZZmVZOQjBuuVVlXQ-6" edge="1">
          <mxGeometry width="50" height="50" relative="1" as="geometry">
            <mxPoint x="240" y="240" as="sourcePoint" />
            <mxPoint x="290" y="190" as="targetPoint" />
          </mxGeometry>
        </mxCell>
        <mxCell id="GCyfZZmVZOQjBuuVVlXQ-35" value="" style="endArrow=none;html=1;rounded=0;entryX=0.5;entryY=1;entryDx=0;entryDy=0;exitX=0.5;exitY=0;exitDx=0;exitDy=0;" parent="1" source="GCyfZZmVZOQjBuuVVlXQ-32" target="GCyfZZmVZOQjBuuVVlXQ-6" edge="1">
          <mxGeometry width="50" height="50" relative="1" as="geometry">
            <mxPoint x="325" y="250" as="sourcePoint" />
            <mxPoint x="325" y="200" as="targetPoint" />
          </mxGeometry>
        </mxCell>
        <mxCell id="GCyfZZmVZOQjBuuVVlXQ-36" value="" style="endArrow=none;html=1;rounded=0;entryX=0.5;entryY=1;entryDx=0;entryDy=0;exitX=0.5;exitY=0;exitDx=0;exitDy=0;" parent="1" source="GCyfZZmVZOQjBuuVVlXQ-31" target="GCyfZZmVZOQjBuuVVlXQ-6" edge="1">
          <mxGeometry width="50" height="50" relative="1" as="geometry">
            <mxPoint x="265" y="250" as="sourcePoint" />
            <mxPoint x="325" y="200" as="targetPoint" />
          </mxGeometry>
        </mxCell>
        <mxCell id="GCyfZZmVZOQjBuuVVlXQ-37" value="" style="endArrow=none;html=1;rounded=0;entryX=0.5;entryY=1;entryDx=0;entryDy=0;exitX=0.5;exitY=0;exitDx=0;exitDy=0;" parent="1" source="GCyfZZmVZOQjBuuVVlXQ-30" target="GCyfZZmVZOQjBuuVVlXQ-6" edge="1">
          <mxGeometry width="50" height="50" relative="1" as="geometry">
            <mxPoint x="205" y="250" as="sourcePoint" />
            <mxPoint x="325" y="200" as="targetPoint" />
          </mxGeometry>
        </mxCell>
        <mxCell id="GCyfZZmVZOQjBuuVVlXQ-38" value="t" style="ellipse;whiteSpace=wrap;html=1;aspect=fixed;" parent="1" vertex="1">
          <mxGeometry x="150" y="255" width="40" height="40" as="geometry" />
        </mxCell>
        <mxCell id="GCyfZZmVZOQjBuuVVlXQ-39" value="i" style="ellipse;whiteSpace=wrap;html=1;aspect=fixed;" parent="1" vertex="1">
          <mxGeometry x="200" y="255" width="40" height="40" as="geometry" />
        </mxCell>
        <mxCell id="GCyfZZmVZOQjBuuVVlXQ-41" value="" style="endArrow=none;html=1;rounded=0;entryX=0.5;entryY=1;entryDx=0;entryDy=0;exitX=0.5;exitY=0;exitDx=0;exitDy=0;" parent="1" source="GCyfZZmVZOQjBuuVVlXQ-39" target="GCyfZZmVZOQjBuuVVlXQ-33" edge="1">
          <mxGeometry width="50" height="50" relative="1" as="geometry">
            <mxPoint x="310" y="305" as="sourcePoint" />
            <mxPoint x="310" y="265" as="targetPoint" />
          </mxGeometry>
        </mxCell>
        <mxCell id="GCyfZZmVZOQjBuuVVlXQ-42" value="" style="endArrow=none;html=1;rounded=0;entryX=0.5;entryY=1;entryDx=0;entryDy=0;exitX=0.5;exitY=0;exitDx=0;exitDy=0;" parent="1" source="GCyfZZmVZOQjBuuVVlXQ-38" target="GCyfZZmVZOQjBuuVVlXQ-33" edge="1">
          <mxGeometry width="50" height="50" relative="1" as="geometry">
            <mxPoint x="275" y="325" as="sourcePoint" />
            <mxPoint x="275" y="295" as="targetPoint" />
          </mxGeometry>
        </mxCell>
        <mxCell id="GCyfZZmVZOQjBuuVVlXQ-43" value="v" style="ellipse;whiteSpace=wrap;html=1;aspect=fixed;" parent="1" vertex="1">
          <mxGeometry x="250" y="205" width="40" height="40" as="geometry" />
        </mxCell>
        <mxCell id="GCyfZZmVZOQjBuuVVlXQ-44" value="t" style="ellipse;whiteSpace=wrap;html=1;aspect=fixed;" parent="1" vertex="1">
          <mxGeometry x="300" y="205" width="40" height="40" as="geometry" />
        </mxCell>
        <mxCell id="GCyfZZmVZOQjBuuVVlXQ-45" value="i" style="ellipse;whiteSpace=wrap;html=1;aspect=fixed;" parent="1" vertex="1">
          <mxGeometry x="350" y="205" width="40" height="40" as="geometry" />
        </mxCell>
        <mxCell id="GCyfZZmVZOQjBuuVVlXQ-46" value="=" style="ellipse;whiteSpace=wrap;html=1;aspect=fixed;" parent="1" vertex="1">
          <mxGeometry x="400" y="205" width="40" height="40" as="geometry" />
        </mxCell>
        <mxCell id="GCyfZZmVZOQjBuuVVlXQ-47" value="E" style="ellipse;whiteSpace=wrap;html=1;aspect=fixed;" parent="1" vertex="1">
          <mxGeometry x="450" y="205" width="40" height="40" as="geometry" />
        </mxCell>
        <mxCell id="GCyfZZmVZOQjBuuVVlXQ-48" value=";" style="ellipse;whiteSpace=wrap;html=1;aspect=fixed;" parent="1" vertex="1">
          <mxGeometry x="500" y="205" width="40" height="40" as="geometry" />
        </mxCell>
        <mxCell id="GCyfZZmVZOQjBuuVVlXQ-49" value="N" style="ellipse;whiteSpace=wrap;html=1;aspect=fixed;" parent="1" vertex="1">
          <mxGeometry x="550" y="205" width="40" height="40" as="geometry" />
        </mxCell>
        <mxCell id="GCyfZZmVZOQjBuuVVlXQ-50" value="" style="endArrow=none;html=1;rounded=0;entryX=0.5;entryY=1;entryDx=0;entryDy=0;exitX=0.5;exitY=0;exitDx=0;exitDy=0;" parent="1" source="GCyfZZmVZOQjBuuVVlXQ-43" target="GCyfZZmVZOQjBuuVVlXQ-9" edge="1">
          <mxGeometry width="50" height="50" relative="1" as="geometry">
            <mxPoint x="340" y="310" as="sourcePoint" />
            <mxPoint x="390" y="260" as="targetPoint" />
          </mxGeometry>
        </mxCell>
        <mxCell id="GCyfZZmVZOQjBuuVVlXQ-51" value="" style="endArrow=none;html=1;rounded=0;entryX=0.5;entryY=1;entryDx=0;entryDy=0;exitX=0.5;exitY=0;exitDx=0;exitDy=0;" parent="1" source="GCyfZZmVZOQjBuuVVlXQ-44" target="GCyfZZmVZOQjBuuVVlXQ-9" edge="1">
          <mxGeometry width="50" height="50" relative="1" as="geometry">
            <mxPoint x="370" y="210" as="sourcePoint" />
            <mxPoint x="430" y="180" as="targetPoint" />
          </mxGeometry>
        </mxCell>
        <mxCell id="GCyfZZmVZOQjBuuVVlXQ-52" value="" style="endArrow=none;html=1;rounded=0;entryX=0.5;entryY=1;entryDx=0;entryDy=0;exitX=0.5;exitY=0;exitDx=0;exitDy=0;" parent="1" source="GCyfZZmVZOQjBuuVVlXQ-45" target="GCyfZZmVZOQjBuuVVlXQ-9" edge="1">
          <mxGeometry width="50" height="50" relative="1" as="geometry">
            <mxPoint x="420" y="210" as="sourcePoint" />
            <mxPoint x="430" y="180" as="targetPoint" />
          </mxGeometry>
        </mxCell>
        <mxCell id="GCyfZZmVZOQjBuuVVlXQ-53" value="" style="endArrow=none;html=1;rounded=0;entryX=0.5;entryY=1;entryDx=0;entryDy=0;exitX=0.5;exitY=0;exitDx=0;exitDy=0;" parent="1" source="GCyfZZmVZOQjBuuVVlXQ-46" target="GCyfZZmVZOQjBuuVVlXQ-9" edge="1">
          <mxGeometry width="50" height="50" relative="1" as="geometry">
            <mxPoint x="470" y="210" as="sourcePoint" />
            <mxPoint x="430" y="180" as="targetPoint" />
          </mxGeometry>
        </mxCell>
        <mxCell id="GCyfZZmVZOQjBuuVVlXQ-54" value="" style="endArrow=none;html=1;rounded=0;entryX=0.5;entryY=1;entryDx=0;entryDy=0;exitX=0.5;exitY=0;exitDx=0;exitDy=0;" parent="1" source="GCyfZZmVZOQjBuuVVlXQ-47" target="GCyfZZmVZOQjBuuVVlXQ-9" edge="1">
          <mxGeometry width="50" height="50" relative="1" as="geometry">
            <mxPoint x="520" y="210" as="sourcePoint" />
            <mxPoint x="430" y="180" as="targetPoint" />
          </mxGeometry>
        </mxCell>
        <mxCell id="GCyfZZmVZOQjBuuVVlXQ-55" value="" style="endArrow=none;html=1;rounded=0;entryX=0.5;entryY=1;entryDx=0;entryDy=0;exitX=0.5;exitY=0;exitDx=0;exitDy=0;" parent="1" source="GCyfZZmVZOQjBuuVVlXQ-48" target="GCyfZZmVZOQjBuuVVlXQ-9" edge="1">
          <mxGeometry width="50" height="50" relative="1" as="geometry">
            <mxPoint x="570" y="210" as="sourcePoint" />
            <mxPoint x="430" y="180" as="targetPoint" />
          </mxGeometry>
        </mxCell>
        <mxCell id="GCyfZZmVZOQjBuuVVlXQ-56" value="" style="endArrow=none;html=1;rounded=0;entryX=0.5;entryY=1;entryDx=0;entryDy=0;exitX=0.5;exitY=0;exitDx=0;exitDy=0;" parent="1" source="GCyfZZmVZOQjBuuVVlXQ-49" target="GCyfZZmVZOQjBuuVVlXQ-9" edge="1">
          <mxGeometry width="50" height="50" relative="1" as="geometry">
            <mxPoint x="620" y="210" as="sourcePoint" />
            <mxPoint x="430" y="180" as="targetPoint" />
          </mxGeometry>
        </mxCell>
        <mxCell id="GCyfZZmVZOQjBuuVVlXQ-64" value="l" style="ellipse;whiteSpace=wrap;html=1;aspect=fixed;" parent="1" vertex="1">
          <mxGeometry x="400" y="255" width="40" height="40" as="geometry" />
        </mxCell>
        <mxCell id="GCyfZZmVZOQjBuuVVlXQ-65" value="" style="endArrow=none;html=1;rounded=0;entryX=0.5;entryY=1;entryDx=0;entryDy=0;exitX=0.5;exitY=0;exitDx=0;exitDy=0;" parent="1" source="GCyfZZmVZOQjBuuVVlXQ-64" target="GCyfZZmVZOQjBuuVVlXQ-47" edge="1">
          <mxGeometry width="50" height="50" relative="1" as="geometry">
            <mxPoint x="230" y="285" as="sourcePoint" />
            <mxPoint x="230" y="255" as="targetPoint" />
          </mxGeometry>
        </mxCell>
        <mxCell id="GCyfZZmVZOQjBuuVVlXQ-66" value="w" style="ellipse;whiteSpace=wrap;html=1;aspect=fixed;" parent="1" vertex="1">
          <mxGeometry x="289.5" y="340" width="40" height="40" as="geometry" />
        </mxCell>
        <mxCell id="GCyfZZmVZOQjBuuVVlXQ-67" value="(" style="ellipse;whiteSpace=wrap;html=1;aspect=fixed;" parent="1" vertex="1">
          <mxGeometry x="339.5" y="340" width="40" height="40" as="geometry" />
        </mxCell>
        <mxCell id="GCyfZZmVZOQjBuuVVlXQ-68" value="E" style="ellipse;whiteSpace=wrap;html=1;aspect=fixed;" parent="1" vertex="1">
          <mxGeometry x="389.5" y="340" width="40" height="40" as="geometry" />
        </mxCell>
        <mxCell id="GCyfZZmVZOQjBuuVVlXQ-69" value=")" style="ellipse;whiteSpace=wrap;html=1;aspect=fixed;" parent="1" vertex="1">
          <mxGeometry x="439.5" y="340" width="40" height="40" as="geometry" />
        </mxCell>
        <mxCell id="GCyfZZmVZOQjBuuVVlXQ-70" value="{" style="ellipse;whiteSpace=wrap;html=1;aspect=fixed;" parent="1" vertex="1">
          <mxGeometry x="489.5" y="340" width="40" height="40" as="geometry" />
        </mxCell>
        <mxCell id="GCyfZZmVZOQjBuuVVlXQ-71" value="N" style="ellipse;whiteSpace=wrap;html=1;aspect=fixed;" parent="1" vertex="1">
          <mxGeometry x="539.5" y="340" width="40" height="40" as="geometry" />
        </mxCell>
        <mxCell id="GCyfZZmVZOQjBuuVVlXQ-72" value="}" style="ellipse;whiteSpace=wrap;html=1;aspect=fixed;" parent="1" vertex="1">
          <mxGeometry x="589.5" y="340" width="40" height="40" as="geometry" />
        </mxCell>
        <mxCell id="GCyfZZmVZOQjBuuVVlXQ-73" value="N" style="ellipse;whiteSpace=wrap;html=1;aspect=fixed;" parent="1" vertex="1">
          <mxGeometry x="640.5" y="340" width="40" height="40" as="geometry" />
        </mxCell>
        <mxCell id="GCyfZZmVZOQjBuuVVlXQ-74" value="" style="endArrow=none;html=1;rounded=0;entryX=0.5;entryY=1;entryDx=0;entryDy=0;exitX=0.5;exitY=0;exitDx=0;exitDy=0;" parent="1" source="GCyfZZmVZOQjBuuVVlXQ-73" target="GCyfZZmVZOQjBuuVVlXQ-49" edge="1">
          <mxGeometry width="50" height="50" relative="1" as="geometry">
            <mxPoint x="500" y="310" as="sourcePoint" />
            <mxPoint x="550" y="260" as="targetPoint" />
          </mxGeometry>
        </mxCell>
        <mxCell id="GCyfZZmVZOQjBuuVVlXQ-75" value="" style="endArrow=none;html=1;rounded=0;entryX=0.5;entryY=1;entryDx=0;entryDy=0;exitX=0.5;exitY=0;exitDx=0;exitDy=0;" parent="1" source="GCyfZZmVZOQjBuuVVlXQ-72" target="GCyfZZmVZOQjBuuVVlXQ-49" edge="1">
          <mxGeometry width="50" height="50" relative="1" as="geometry">
            <mxPoint x="631" y="325" as="sourcePoint" />
            <mxPoint x="580" y="255" as="targetPoint" />
          </mxGeometry>
        </mxCell>
        <mxCell id="GCyfZZmVZOQjBuuVVlXQ-76" value="" style="endArrow=none;html=1;rounded=0;entryX=0.5;entryY=1;entryDx=0;entryDy=0;exitX=0.5;exitY=0;exitDx=0;exitDy=0;" parent="1" source="GCyfZZmVZOQjBuuVVlXQ-71" target="GCyfZZmVZOQjBuuVVlXQ-49" edge="1">
          <mxGeometry width="50" height="50" relative="1" as="geometry">
            <mxPoint x="580" y="325" as="sourcePoint" />
            <mxPoint x="580" y="255" as="targetPoint" />
          </mxGeometry>
        </mxCell>
        <mxCell id="GCyfZZmVZOQjBuuVVlXQ-77" value="" style="endArrow=none;html=1;rounded=0;entryX=0.5;entryY=1;entryDx=0;entryDy=0;exitX=0.5;exitY=0;exitDx=0;exitDy=0;" parent="1" source="GCyfZZmVZOQjBuuVVlXQ-70" target="GCyfZZmVZOQjBuuVVlXQ-49" edge="1">
          <mxGeometry width="50" height="50" relative="1" as="geometry">
            <mxPoint x="530" y="325" as="sourcePoint" />
            <mxPoint x="580" y="255" as="targetPoint" />
          </mxGeometry>
        </mxCell>
        <mxCell id="GCyfZZmVZOQjBuuVVlXQ-78" value="" style="endArrow=none;html=1;rounded=0;entryX=0.5;entryY=1;entryDx=0;entryDy=0;exitX=0.5;exitY=0;exitDx=0;exitDy=0;" parent="1" source="GCyfZZmVZOQjBuuVVlXQ-69" target="GCyfZZmVZOQjBuuVVlXQ-49" edge="1">
          <mxGeometry width="50" height="50" relative="1" as="geometry">
            <mxPoint x="480" y="325" as="sourcePoint" />
            <mxPoint x="580" y="255" as="targetPoint" />
          </mxGeometry>
        </mxCell>
        <mxCell id="GCyfZZmVZOQjBuuVVlXQ-79" value="" style="endArrow=none;html=1;rounded=0;entryX=0.5;entryY=1;entryDx=0;entryDy=0;exitX=0.5;exitY=0;exitDx=0;exitDy=0;" parent="1" source="GCyfZZmVZOQjBuuVVlXQ-68" target="GCyfZZmVZOQjBuuVVlXQ-49" edge="1">
          <mxGeometry width="50" height="50" relative="1" as="geometry">
            <mxPoint x="430" y="325" as="sourcePoint" />
            <mxPoint x="580" y="255" as="targetPoint" />
          </mxGeometry>
        </mxCell>
        <mxCell id="GCyfZZmVZOQjBuuVVlXQ-80" value="" style="endArrow=none;html=1;rounded=0;entryX=0.5;entryY=1;entryDx=0;entryDy=0;exitX=0.5;exitY=0;exitDx=0;exitDy=0;" parent="1" source="GCyfZZmVZOQjBuuVVlXQ-67" target="GCyfZZmVZOQjBuuVVlXQ-49" edge="1">
          <mxGeometry width="50" height="50" relative="1" as="geometry">
            <mxPoint x="380" y="325" as="sourcePoint" />
            <mxPoint x="580" y="255" as="targetPoint" />
          </mxGeometry>
        </mxCell>
        <mxCell id="GCyfZZmVZOQjBuuVVlXQ-81" value="" style="endArrow=none;html=1;rounded=0;entryX=0.5;entryY=1;entryDx=0;entryDy=0;exitX=0.5;exitY=0;exitDx=0;exitDy=0;" parent="1" source="GCyfZZmVZOQjBuuVVlXQ-66" target="GCyfZZmVZOQjBuuVVlXQ-49" edge="1">
          <mxGeometry width="50" height="50" relative="1" as="geometry">
            <mxPoint x="330" y="325" as="sourcePoint" />
            <mxPoint x="580" y="255" as="targetPoint" />
          </mxGeometry>
        </mxCell>
        <mxCell id="GCyfZZmVZOQjBuuVVlXQ-82" value="i" style="ellipse;whiteSpace=wrap;html=1;aspect=fixed;" parent="1" vertex="1">
          <mxGeometry x="221" y="410" width="40" height="40" as="geometry" />
        </mxCell>
        <mxCell id="GCyfZZmVZOQjBuuVVlXQ-83" value="M" style="ellipse;whiteSpace=wrap;html=1;aspect=fixed;" parent="1" vertex="1">
          <mxGeometry x="271" y="410" width="40" height="40" as="geometry" />
        </mxCell>
        <mxCell id="GCyfZZmVZOQjBuuVVlXQ-84" value="" style="endArrow=none;html=1;rounded=0;entryX=0.5;entryY=1;entryDx=0;entryDy=0;exitX=0.5;exitY=0;exitDx=0;exitDy=0;" parent="1" source="GCyfZZmVZOQjBuuVVlXQ-83" target="GCyfZZmVZOQjBuuVVlXQ-68" edge="1">
          <mxGeometry width="50" height="50" relative="1" as="geometry">
            <mxPoint x="510" y="350" as="sourcePoint" />
            <mxPoint x="580" y="255" as="targetPoint" />
          </mxGeometry>
        </mxCell>
        <mxCell id="GCyfZZmVZOQjBuuVVlXQ-85" value="" style="endArrow=none;html=1;rounded=0;entryX=0.5;entryY=1;entryDx=0;entryDy=0;exitX=0.5;exitY=0;exitDx=0;exitDy=0;" parent="1" source="GCyfZZmVZOQjBuuVVlXQ-82" target="GCyfZZmVZOQjBuuVVlXQ-68" edge="1">
          <mxGeometry width="50" height="50" relative="1" as="geometry">
            <mxPoint x="505" y="410" as="sourcePoint" />
            <mxPoint x="510" y="390" as="targetPoint" />
          </mxGeometry>
        </mxCell>
        <mxCell id="GCyfZZmVZOQjBuuVVlXQ-86" value="&amp;gt;" style="ellipse;whiteSpace=wrap;html=1;aspect=fixed;" parent="1" vertex="1">
          <mxGeometry x="221" y="460" width="40" height="40" as="geometry" />
        </mxCell>
        <mxCell id="GCyfZZmVZOQjBuuVVlXQ-87" value="E" style="ellipse;whiteSpace=wrap;html=1;aspect=fixed;" parent="1" vertex="1">
          <mxGeometry x="271" y="460" width="40" height="40" as="geometry" />
        </mxCell>
        <mxCell id="GCyfZZmVZOQjBuuVVlXQ-88" value="" style="endArrow=none;html=1;rounded=0;entryX=0.5;entryY=1;entryDx=0;entryDy=0;exitX=0.5;exitY=0;exitDx=0;exitDy=0;" parent="1" source="GCyfZZmVZOQjBuuVVlXQ-87" target="GCyfZZmVZOQjBuuVVlXQ-83" edge="1">
          <mxGeometry width="50" height="50" relative="1" as="geometry">
            <mxPoint x="301" y="430" as="sourcePoint" />
            <mxPoint x="301" y="410" as="targetPoint" />
          </mxGeometry>
        </mxCell>
        <mxCell id="GCyfZZmVZOQjBuuVVlXQ-89" value="" style="endArrow=none;html=1;rounded=0;entryX=0.5;entryY=1;entryDx=0;entryDy=0;exitX=0.5;exitY=0;exitDx=0;exitDy=0;" parent="1" source="GCyfZZmVZOQjBuuVVlXQ-86" target="GCyfZZmVZOQjBuuVVlXQ-83" edge="1">
          <mxGeometry width="50" height="50" relative="1" as="geometry">
            <mxPoint x="301" y="490" as="sourcePoint" />
            <mxPoint x="301" y="470" as="targetPoint" />
          </mxGeometry>
        </mxCell>
        <mxCell id="GCyfZZmVZOQjBuuVVlXQ-90" value="l" style="ellipse;whiteSpace=wrap;html=1;aspect=fixed;" parent="1" vertex="1">
          <mxGeometry x="271" y="510" width="40" height="40" as="geometry" />
        </mxCell>
        <mxCell id="GCyfZZmVZOQjBuuVVlXQ-91" value="" style="endArrow=none;html=1;rounded=0;entryX=0.5;entryY=1;entryDx=0;entryDy=0;exitX=0.5;exitY=0;exitDx=0;exitDy=0;" parent="1" source="GCyfZZmVZOQjBuuVVlXQ-90" target="GCyfZZmVZOQjBuuVVlXQ-87" edge="1">
          <mxGeometry width="50" height="50" relative="1" as="geometry">
            <mxPoint x="301" y="470" as="sourcePoint" />
            <mxPoint x="301" y="460" as="targetPoint" />
          </mxGeometry>
        </mxCell>
        <mxCell id="GCyfZZmVZOQjBuuVVlXQ-92" value="i" style="ellipse;whiteSpace=wrap;html=1;aspect=fixed;" parent="1" vertex="1">
          <mxGeometry x="321" y="410" width="40" height="40" as="geometry" />
        </mxCell>
        <mxCell id="GCyfZZmVZOQjBuuVVlXQ-93" value="=" style="ellipse;whiteSpace=wrap;html=1;aspect=fixed;" parent="1" vertex="1">
          <mxGeometry x="371" y="410" width="40" height="40" as="geometry" />
        </mxCell>
        <mxCell id="GCyfZZmVZOQjBuuVVlXQ-94" value="E" style="ellipse;whiteSpace=wrap;html=1;aspect=fixed;" parent="1" vertex="1">
          <mxGeometry x="421" y="410" width="40" height="40" as="geometry" />
        </mxCell>
        <mxCell id="GCyfZZmVZOQjBuuVVlXQ-95" value="M" style="ellipse;whiteSpace=wrap;html=1;aspect=fixed;" parent="1" vertex="1">
          <mxGeometry x="471" y="410" width="40" height="40" as="geometry" />
        </mxCell>
        <mxCell id="GCyfZZmVZOQjBuuVVlXQ-96" value=";" style="ellipse;whiteSpace=wrap;html=1;aspect=fixed;" parent="1" vertex="1">
          <mxGeometry x="522" y="410" width="40" height="40" as="geometry" />
        </mxCell>
        <mxCell id="GCyfZZmVZOQjBuuVVlXQ-97" value="" style="endArrow=none;html=1;rounded=0;entryX=0.5;entryY=1;entryDx=0;entryDy=0;exitX=0.5;exitY=0;exitDx=0;exitDy=0;" parent="1" source="GCyfZZmVZOQjBuuVVlXQ-92" target="GCyfZZmVZOQjBuuVVlXQ-71" edge="1">
          <mxGeometry width="50" height="50" relative="1" as="geometry">
            <mxPoint x="510" y="400" as="sourcePoint" />
            <mxPoint x="510" y="390" as="targetPoint" />
          </mxGeometry>
        </mxCell>
        <mxCell id="GCyfZZmVZOQjBuuVVlXQ-98" value="" style="endArrow=none;html=1;rounded=0;entryX=0.5;entryY=1;entryDx=0;entryDy=0;exitX=0.5;exitY=0;exitDx=0;exitDy=0;" parent="1" source="GCyfZZmVZOQjBuuVVlXQ-93" target="GCyfZZmVZOQjBuuVVlXQ-71" edge="1">
          <mxGeometry width="50" height="50" relative="1" as="geometry">
            <mxPoint x="560" y="400" as="sourcePoint" />
            <mxPoint x="660" y="390" as="targetPoint" />
          </mxGeometry>
        </mxCell>
        <mxCell id="GCyfZZmVZOQjBuuVVlXQ-99" value="" style="endArrow=none;html=1;rounded=0;entryX=0.5;entryY=1;entryDx=0;entryDy=0;exitX=0.5;exitY=0;exitDx=0;exitDy=0;" parent="1" source="GCyfZZmVZOQjBuuVVlXQ-94" target="GCyfZZmVZOQjBuuVVlXQ-71" edge="1">
          <mxGeometry width="50" height="50" relative="1" as="geometry">
            <mxPoint x="610" y="400" as="sourcePoint" />
            <mxPoint x="660" y="390" as="targetPoint" />
          </mxGeometry>
        </mxCell>
        <mxCell id="GCyfZZmVZOQjBuuVVlXQ-100" value="" style="endArrow=none;html=1;rounded=0;entryX=0.5;entryY=1;entryDx=0;entryDy=0;exitX=0.5;exitY=0;exitDx=0;exitDy=0;" parent="1" source="GCyfZZmVZOQjBuuVVlXQ-95" target="GCyfZZmVZOQjBuuVVlXQ-71" edge="1">
          <mxGeometry width="50" height="50" relative="1" as="geometry">
            <mxPoint x="660" y="400" as="sourcePoint" />
            <mxPoint x="660" y="390" as="targetPoint" />
          </mxGeometry>
        </mxCell>
        <mxCell id="GCyfZZmVZOQjBuuVVlXQ-101" value="" style="endArrow=none;html=1;rounded=0;entryX=0.5;entryY=1;entryDx=0;entryDy=0;exitX=0.5;exitY=0;exitDx=0;exitDy=0;" parent="1" source="GCyfZZmVZOQjBuuVVlXQ-96" target="GCyfZZmVZOQjBuuVVlXQ-71" edge="1">
          <mxGeometry width="50" height="50" relative="1" as="geometry">
            <mxPoint x="710" y="400" as="sourcePoint" />
            <mxPoint x="670" y="400" as="targetPoint" />
          </mxGeometry>
        </mxCell>
        <mxCell id="GCyfZZmVZOQjBuuVVlXQ-102" value="i" style="ellipse;whiteSpace=wrap;html=1;aspect=fixed;" parent="1" vertex="1">
          <mxGeometry x="371" y="460" width="40" height="40" as="geometry" />
        </mxCell>
        <mxCell id="GCyfZZmVZOQjBuuVVlXQ-103" value="" style="endArrow=none;html=1;rounded=0;entryX=0.5;entryY=1;entryDx=0;entryDy=0;exitX=0.5;exitY=0;exitDx=0;exitDy=0;" parent="1" source="GCyfZZmVZOQjBuuVVlXQ-102" target="GCyfZZmVZOQjBuuVVlXQ-94" edge="1">
          <mxGeometry width="50" height="50" relative="1" as="geometry">
            <mxPoint x="301" y="470" as="sourcePoint" />
            <mxPoint x="301" y="460" as="targetPoint" />
          </mxGeometry>
        </mxCell>
        <mxCell id="GCyfZZmVZOQjBuuVVlXQ-104" value="*" style="ellipse;whiteSpace=wrap;html=1;aspect=fixed;" parent="1" vertex="1">
          <mxGeometry x="420" y="460" width="40" height="40" as="geometry" />
        </mxCell>
        <mxCell id="GCyfZZmVZOQjBuuVVlXQ-105" value="i" style="ellipse;whiteSpace=wrap;html=1;aspect=fixed;" parent="1" vertex="1">
          <mxGeometry x="471" y="460" width="40" height="40" as="geometry" />
        </mxCell>
        <mxCell id="GCyfZZmVZOQjBuuVVlXQ-106" value="" style="endArrow=none;html=1;rounded=0;entryX=0.5;entryY=1;entryDx=0;entryDy=0;exitX=0.5;exitY=0;exitDx=0;exitDy=0;" parent="1" source="GCyfZZmVZOQjBuuVVlXQ-104" target="GCyfZZmVZOQjBuuVVlXQ-95" edge="1">
          <mxGeometry width="50" height="50" relative="1" as="geometry">
            <mxPoint x="491" y="460" as="sourcePoint" />
            <mxPoint x="451" y="460" as="targetPoint" />
          </mxGeometry>
        </mxCell>
        <mxCell id="GCyfZZmVZOQjBuuVVlXQ-107" value="" style="endArrow=none;html=1;rounded=0;entryX=0.5;entryY=1;entryDx=0;entryDy=0;exitX=0.5;exitY=0;exitDx=0;exitDy=0;" parent="1" source="GCyfZZmVZOQjBuuVVlXQ-105" target="GCyfZZmVZOQjBuuVVlXQ-95" edge="1">
          <mxGeometry width="50" height="50" relative="1" as="geometry">
            <mxPoint x="502" y="470" as="sourcePoint" />
            <mxPoint x="501" y="460" as="targetPoint" />
          </mxGeometry>
        </mxCell>
        <mxCell id="GCyfZZmVZOQjBuuVVlXQ-108" value="N" style="ellipse;whiteSpace=wrap;html=1;aspect=fixed;" parent="1" vertex="1">
          <mxGeometry x="571" y="410" width="40" height="40" as="geometry" />
        </mxCell>
        <mxCell id="GCyfZZmVZOQjBuuVVlXQ-109" value="" style="endArrow=none;html=1;rounded=0;entryX=0.5;entryY=1;entryDx=0;entryDy=0;exitX=0.5;exitY=0;exitDx=0;exitDy=0;" parent="1" source="GCyfZZmVZOQjBuuVVlXQ-108" target="GCyfZZmVZOQjBuuVVlXQ-71" edge="1">
          <mxGeometry width="50" height="50" relative="1" as="geometry">
            <mxPoint x="761" y="400" as="sourcePoint" />
            <mxPoint x="660" y="390" as="targetPoint" />
          </mxGeometry>
        </mxCell>
        <mxCell id="GCyfZZmVZOQjBuuVVlXQ-121" value="i" style="ellipse;whiteSpace=wrap;html=1;aspect=fixed;" parent="1" vertex="1">
          <mxGeometry x="471" y="510" width="40" height="40" as="geometry" />
        </mxCell>
        <mxCell id="GCyfZZmVZOQjBuuVVlXQ-122" value="=" style="ellipse;whiteSpace=wrap;html=1;aspect=fixed;" parent="1" vertex="1">
          <mxGeometry x="521" y="510" width="40" height="40" as="geometry" />
        </mxCell>
        <mxCell id="GCyfZZmVZOQjBuuVVlXQ-123" value="E" style="ellipse;whiteSpace=wrap;html=1;aspect=fixed;" parent="1" vertex="1">
          <mxGeometry x="571" y="510" width="40" height="40" as="geometry" />
        </mxCell>
        <mxCell id="GCyfZZmVZOQjBuuVVlXQ-124" value="M" style="ellipse;whiteSpace=wrap;html=1;aspect=fixed;" parent="1" vertex="1">
          <mxGeometry x="621" y="510" width="40" height="40" as="geometry" />
        </mxCell>
        <mxCell id="GCyfZZmVZOQjBuuVVlXQ-125" value=";" style="ellipse;whiteSpace=wrap;html=1;aspect=fixed;" parent="1" vertex="1">
          <mxGeometry x="672" y="510" width="40" height="40" as="geometry" />
        </mxCell>
        <mxCell id="GCyfZZmVZOQjBuuVVlXQ-126" value="i" style="ellipse;whiteSpace=wrap;html=1;aspect=fixed;" parent="1" vertex="1">
          <mxGeometry x="571" y="560" width="40" height="40" as="geometry" />
        </mxCell>
        <mxCell id="GCyfZZmVZOQjBuuVVlXQ-127" value="" style="endArrow=none;html=1;rounded=0;entryX=0.5;entryY=1;entryDx=0;entryDy=0;exitX=0.5;exitY=0;exitDx=0;exitDy=0;" parent="1" source="GCyfZZmVZOQjBuuVVlXQ-126" target="GCyfZZmVZOQjBuuVVlXQ-123" edge="1">
          <mxGeometry width="50" height="50" relative="1" as="geometry">
            <mxPoint x="510.5" y="570" as="sourcePoint" />
            <mxPoint x="510.5" y="560" as="targetPoint" />
          </mxGeometry>
        </mxCell>
        <mxCell id="GCyfZZmVZOQjBuuVVlXQ-128" value="-" style="ellipse;whiteSpace=wrap;html=1;aspect=fixed;" parent="1" vertex="1">
          <mxGeometry x="621" y="560" width="40" height="40" as="geometry" />
        </mxCell>
        <mxCell id="GCyfZZmVZOQjBuuVVlXQ-129" value="l" style="ellipse;whiteSpace=wrap;html=1;aspect=fixed;" parent="1" vertex="1">
          <mxGeometry x="672" y="560" width="40" height="40" as="geometry" />
        </mxCell>
        <mxCell id="GCyfZZmVZOQjBuuVVlXQ-130" value="" style="endArrow=none;html=1;rounded=0;entryX=0.5;entryY=1;entryDx=0;entryDy=0;exitX=0.5;exitY=0;exitDx=0;exitDy=0;" parent="1" source="GCyfZZmVZOQjBuuVVlXQ-128" target="GCyfZZmVZOQjBuuVVlXQ-124" edge="1">
          <mxGeometry width="50" height="50" relative="1" as="geometry">
            <mxPoint x="700.5" y="560" as="sourcePoint" />
            <mxPoint x="660.5" y="560" as="targetPoint" />
          </mxGeometry>
        </mxCell>
        <mxCell id="GCyfZZmVZOQjBuuVVlXQ-131" value="" style="endArrow=none;html=1;rounded=0;entryX=0.5;entryY=1;entryDx=0;entryDy=0;exitX=0.5;exitY=0;exitDx=0;exitDy=0;" parent="1" source="GCyfZZmVZOQjBuuVVlXQ-129" target="GCyfZZmVZOQjBuuVVlXQ-124" edge="1">
          <mxGeometry width="50" height="50" relative="1" as="geometry">
            <mxPoint x="711.5" y="570" as="sourcePoint" />
            <mxPoint x="710.5" y="560" as="targetPoint" />
          </mxGeometry>
        </mxCell>
        <mxCell id="GCyfZZmVZOQjBuuVVlXQ-132" value="" style="endArrow=none;html=1;rounded=0;entryX=0.5;entryY=0;entryDx=0;entryDy=0;exitX=0.5;exitY=1;exitDx=0;exitDy=0;" parent="1" source="GCyfZZmVZOQjBuuVVlXQ-108" target="GCyfZZmVZOQjBuuVVlXQ-121" edge="1">
          <mxGeometry width="50" height="50" relative="1" as="geometry">
            <mxPoint x="552" y="470" as="sourcePoint" />
            <mxPoint x="501" y="460" as="targetPoint" />
          </mxGeometry>
        </mxCell>
        <mxCell id="GCyfZZmVZOQjBuuVVlXQ-133" value="" style="endArrow=none;html=1;rounded=0;entryX=0.5;entryY=0;entryDx=0;entryDy=0;exitX=0.5;exitY=1;exitDx=0;exitDy=0;" parent="1" source="GCyfZZmVZOQjBuuVVlXQ-108" target="GCyfZZmVZOQjBuuVVlXQ-122" edge="1">
          <mxGeometry width="50" height="50" relative="1" as="geometry">
            <mxPoint x="601" y="460" as="sourcePoint" />
            <mxPoint x="541" y="550" as="targetPoint" />
          </mxGeometry>
        </mxCell>
        <mxCell id="GCyfZZmVZOQjBuuVVlXQ-134" value="" style="endArrow=none;html=1;rounded=0;entryX=0.5;entryY=0;entryDx=0;entryDy=0;exitX=0.5;exitY=1;exitDx=0;exitDy=0;" parent="1" source="GCyfZZmVZOQjBuuVVlXQ-108" target="GCyfZZmVZOQjBuuVVlXQ-123" edge="1">
          <mxGeometry width="50" height="50" relative="1" as="geometry">
            <mxPoint x="601" y="460" as="sourcePoint" />
            <mxPoint x="591" y="550" as="targetPoint" />
          </mxGeometry>
        </mxCell>
        <mxCell id="GCyfZZmVZOQjBuuVVlXQ-135" value="" style="endArrow=none;html=1;rounded=0;entryX=0.5;entryY=0;entryDx=0;entryDy=0;exitX=0.5;exitY=1;exitDx=0;exitDy=0;" parent="1" source="GCyfZZmVZOQjBuuVVlXQ-108" target="GCyfZZmVZOQjBuuVVlXQ-124" edge="1">
          <mxGeometry width="50" height="50" relative="1" as="geometry">
            <mxPoint x="601" y="460" as="sourcePoint" />
            <mxPoint x="641" y="550" as="targetPoint" />
          </mxGeometry>
        </mxCell>
        <mxCell id="GCyfZZmVZOQjBuuVVlXQ-136" value="" style="endArrow=none;html=1;rounded=0;entryX=0.5;entryY=0;entryDx=0;entryDy=0;exitX=0.5;exitY=1;exitDx=0;exitDy=0;" parent="1" source="GCyfZZmVZOQjBuuVVlXQ-108" target="GCyfZZmVZOQjBuuVVlXQ-125" edge="1">
          <mxGeometry width="50" height="50" relative="1" as="geometry">
            <mxPoint x="601" y="460" as="sourcePoint" />
            <mxPoint x="691" y="550" as="targetPoint" />
          </mxGeometry>
        </mxCell>
        <mxCell id="GCyfZZmVZOQjBuuVVlXQ-137" value="M" style="ellipse;whiteSpace=wrap;html=1;aspect=fixed;" parent="1" vertex="1">
          <mxGeometry x="620.5" y="410" width="40" height="40" as="geometry" />
        </mxCell>
        <mxCell id="GCyfZZmVZOQjBuuVVlXQ-138" value=";" style="ellipse;whiteSpace=wrap;html=1;aspect=fixed;" parent="1" vertex="1">
          <mxGeometry x="670.5" y="410" width="40" height="40" as="geometry" />
        </mxCell>
        <mxCell id="GCyfZZmVZOQjBuuVVlXQ-139" value="N" style="ellipse;whiteSpace=wrap;html=1;aspect=fixed;" parent="1" vertex="1">
          <mxGeometry x="716" y="410" width="40" height="40" as="geometry" />
        </mxCell>
        <mxCell id="GCyfZZmVZOQjBuuVVlXQ-140" value="" style="endArrow=none;html=1;rounded=0;entryX=0.5;entryY=1;entryDx=0;entryDy=0;exitX=0.5;exitY=0;exitDx=0;exitDy=0;" parent="1" source="GCyfZZmVZOQjBuuVVlXQ-137" target="GCyfZZmVZOQjBuuVVlXQ-73" edge="1">
          <mxGeometry width="50" height="50" relative="1" as="geometry">
            <mxPoint x="810" y="410" as="sourcePoint" />
            <mxPoint x="660" y="390" as="targetPoint" />
          </mxGeometry>
        </mxCell>
        <mxCell id="GCyfZZmVZOQjBuuVVlXQ-141" value="" style="endArrow=none;html=1;rounded=0;entryX=0.5;entryY=1;entryDx=0;entryDy=0;exitX=0.5;exitY=0;exitDx=0;exitDy=0;" parent="1" source="GCyfZZmVZOQjBuuVVlXQ-138" target="GCyfZZmVZOQjBuuVVlXQ-73" edge="1">
          <mxGeometry width="50" height="50" relative="1" as="geometry">
            <mxPoint x="870" y="410" as="sourcePoint" />
            <mxPoint x="761" y="390" as="targetPoint" />
          </mxGeometry>
        </mxCell>
        <mxCell id="GCyfZZmVZOQjBuuVVlXQ-142" value="" style="endArrow=none;html=1;rounded=0;entryX=0.5;entryY=1;entryDx=0;entryDy=0;exitX=0.5;exitY=0;exitDx=0;exitDy=0;" parent="1" source="GCyfZZmVZOQjBuuVVlXQ-139" target="GCyfZZmVZOQjBuuVVlXQ-73" edge="1">
          <mxGeometry width="50" height="50" relative="1" as="geometry">
            <mxPoint x="921" y="410" as="sourcePoint" />
            <mxPoint x="761" y="390" as="targetPoint" />
          </mxGeometry>
        </mxCell>
        <mxCell id="GCyfZZmVZOQjBuuVVlXQ-143" value="m" style="ellipse;whiteSpace=wrap;html=1;aspect=fixed;" parent="1" vertex="1">
          <mxGeometry x="656" y="205" width="40" height="40" as="geometry" />
        </mxCell>
        <mxCell id="GCyfZZmVZOQjBuuVVlXQ-144" value="{" style="ellipse;whiteSpace=wrap;html=1;aspect=fixed;" parent="1" vertex="1">
          <mxGeometry x="706" y="205" width="40" height="40" as="geometry" />
        </mxCell>
        <mxCell id="GCyfZZmVZOQjBuuVVlXQ-145" value="N" style="ellipse;whiteSpace=wrap;html=1;aspect=fixed;" parent="1" vertex="1">
          <mxGeometry x="756" y="205" width="40" height="40" as="geometry" />
        </mxCell>
        <mxCell id="GCyfZZmVZOQjBuuVVlXQ-146" value="}" style="ellipse;whiteSpace=wrap;html=1;aspect=fixed;" parent="1" vertex="1">
          <mxGeometry x="806" y="205" width="40" height="40" as="geometry" />
        </mxCell>
        <mxCell id="GCyfZZmVZOQjBuuVVlXQ-147" value="" style="endArrow=none;html=1;rounded=0;entryX=0.5;entryY=1;entryDx=0;entryDy=0;exitX=0.5;exitY=0;exitDx=0;exitDy=0;" parent="1" source="GCyfZZmVZOQjBuuVVlXQ-143" target="GCyfZZmVZOQjBuuVVlXQ-11" edge="1">
          <mxGeometry width="50" height="50" relative="1" as="geometry">
            <mxPoint x="580" y="215" as="sourcePoint" />
            <mxPoint x="430" y="180" as="targetPoint" />
          </mxGeometry>
        </mxCell>
        <mxCell id="GCyfZZmVZOQjBuuVVlXQ-148" value="" style="endArrow=none;html=1;rounded=0;entryX=0.5;entryY=1;entryDx=0;entryDy=0;exitX=0.5;exitY=0;exitDx=0;exitDy=0;" parent="1" source="GCyfZZmVZOQjBuuVVlXQ-144" target="GCyfZZmVZOQjBuuVVlXQ-11" edge="1">
          <mxGeometry width="50" height="50" relative="1" as="geometry">
            <mxPoint x="635" y="215" as="sourcePoint" />
            <mxPoint x="530" y="180" as="targetPoint" />
          </mxGeometry>
        </mxCell>
        <mxCell id="GCyfZZmVZOQjBuuVVlXQ-149" value="" style="endArrow=none;html=1;rounded=0;entryX=0.5;entryY=1;entryDx=0;entryDy=0;exitX=0.5;exitY=0;exitDx=0;exitDy=0;" parent="1" source="GCyfZZmVZOQjBuuVVlXQ-145" target="GCyfZZmVZOQjBuuVVlXQ-11" edge="1">
          <mxGeometry width="50" height="50" relative="1" as="geometry">
            <mxPoint x="685" y="215" as="sourcePoint" />
            <mxPoint x="530" y="180" as="targetPoint" />
          </mxGeometry>
        </mxCell>
        <mxCell id="GCyfZZmVZOQjBuuVVlXQ-150" value="" style="endArrow=none;html=1;rounded=0;entryX=0.5;entryY=1;entryDx=0;entryDy=0;exitX=0.5;exitY=0;exitDx=0;exitDy=0;" parent="1" source="GCyfZZmVZOQjBuuVVlXQ-146" target="GCyfZZmVZOQjBuuVVlXQ-11" edge="1">
          <mxGeometry width="50" height="50" relative="1" as="geometry">
            <mxPoint x="735" y="215" as="sourcePoint" />
            <mxPoint x="540" y="190" as="targetPoint" />
          </mxGeometry>
        </mxCell>
        <mxCell id="GCyfZZmVZOQjBuuVVlXQ-151" value="v" style="ellipse;whiteSpace=wrap;html=1;aspect=fixed;" parent="1" vertex="1">
          <mxGeometry x="690" y="340" width="40" height="40" as="geometry" />
        </mxCell>
        <mxCell id="GCyfZZmVZOQjBuuVVlXQ-152" value="t" style="ellipse;whiteSpace=wrap;html=1;aspect=fixed;" parent="1" vertex="1">
          <mxGeometry x="740" y="340" width="40" height="40" as="geometry" />
        </mxCell>
        <mxCell id="GCyfZZmVZOQjBuuVVlXQ-153" value="i" style="ellipse;whiteSpace=wrap;html=1;aspect=fixed;" parent="1" vertex="1">
          <mxGeometry x="790" y="340" width="40" height="40" as="geometry" />
        </mxCell>
        <mxCell id="GCyfZZmVZOQjBuuVVlXQ-154" value="=" style="ellipse;whiteSpace=wrap;html=1;aspect=fixed;" parent="1" vertex="1">
          <mxGeometry x="840" y="340" width="40" height="40" as="geometry" />
        </mxCell>
        <mxCell id="GCyfZZmVZOQjBuuVVlXQ-155" value="E" style="ellipse;whiteSpace=wrap;html=1;aspect=fixed;" parent="1" vertex="1">
          <mxGeometry x="890" y="340" width="40" height="40" as="geometry" />
        </mxCell>
        <mxCell id="GCyfZZmVZOQjBuuVVlXQ-156" value=";" style="ellipse;whiteSpace=wrap;html=1;aspect=fixed;" parent="1" vertex="1">
          <mxGeometry x="940" y="340" width="40" height="40" as="geometry" />
        </mxCell>
        <mxCell id="GCyfZZmVZOQjBuuVVlXQ-158" value="l" style="ellipse;whiteSpace=wrap;html=1;aspect=fixed;" parent="1" vertex="1">
          <mxGeometry x="840" y="390" width="40" height="40" as="geometry" />
        </mxCell>
        <mxCell id="GCyfZZmVZOQjBuuVVlXQ-164" value="" style="endArrow=none;html=1;rounded=0;exitX=0.5;exitY=1;exitDx=0;exitDy=0;entryX=0.5;entryY=0;entryDx=0;entryDy=0;" parent="1" source="GCyfZZmVZOQjBuuVVlXQ-145" target="GCyfZZmVZOQjBuuVVlXQ-151" edge="1">
          <mxGeometry width="50" height="50" relative="1" as="geometry">
            <mxPoint x="750" y="320" as="sourcePoint" />
            <mxPoint x="800" y="270" as="targetPoint" />
          </mxGeometry>
        </mxCell>
        <mxCell id="GCyfZZmVZOQjBuuVVlXQ-165" value="" style="endArrow=none;html=1;rounded=0;exitX=0.5;exitY=1;exitDx=0;exitDy=0;entryX=0.5;entryY=0;entryDx=0;entryDy=0;" parent="1" source="GCyfZZmVZOQjBuuVVlXQ-145" target="GCyfZZmVZOQjBuuVVlXQ-152" edge="1">
          <mxGeometry width="50" height="50" relative="1" as="geometry">
            <mxPoint x="686" y="255" as="sourcePoint" />
            <mxPoint x="820" y="350" as="targetPoint" />
          </mxGeometry>
        </mxCell>
        <mxCell id="GCyfZZmVZOQjBuuVVlXQ-166" value="" style="endArrow=none;html=1;rounded=0;exitX=0.5;exitY=1;exitDx=0;exitDy=0;entryX=0.5;entryY=0;entryDx=0;entryDy=0;" parent="1" source="GCyfZZmVZOQjBuuVVlXQ-145" target="GCyfZZmVZOQjBuuVVlXQ-153" edge="1">
          <mxGeometry width="50" height="50" relative="1" as="geometry">
            <mxPoint x="786" y="255" as="sourcePoint" />
            <mxPoint x="820" y="350" as="targetPoint" />
          </mxGeometry>
        </mxCell>
        <mxCell id="GCyfZZmVZOQjBuuVVlXQ-167" value="" style="endArrow=none;html=1;rounded=0;exitX=0.5;exitY=1;exitDx=0;exitDy=0;entryX=0.5;entryY=0;entryDx=0;entryDy=0;" parent="1" source="GCyfZZmVZOQjBuuVVlXQ-145" target="GCyfZZmVZOQjBuuVVlXQ-154" edge="1">
          <mxGeometry width="50" height="50" relative="1" as="geometry">
            <mxPoint x="786" y="255" as="sourcePoint" />
            <mxPoint x="920" y="350" as="targetPoint" />
          </mxGeometry>
        </mxCell>
        <mxCell id="GCyfZZmVZOQjBuuVVlXQ-168" value="" style="endArrow=none;html=1;rounded=0;exitX=0.5;exitY=1;exitDx=0;exitDy=0;entryX=0.5;entryY=0;entryDx=0;entryDy=0;" parent="1" source="GCyfZZmVZOQjBuuVVlXQ-145" target="GCyfZZmVZOQjBuuVVlXQ-155" edge="1">
          <mxGeometry width="50" height="50" relative="1" as="geometry">
            <mxPoint x="786" y="255" as="sourcePoint" />
            <mxPoint x="930" y="360" as="targetPoint" />
          </mxGeometry>
        </mxCell>
        <mxCell id="GCyfZZmVZOQjBuuVVlXQ-169" value="" style="endArrow=none;html=1;rounded=0;exitX=0.5;exitY=1;exitDx=0;exitDy=0;entryX=0.5;entryY=0;entryDx=0;entryDy=0;" parent="1" source="GCyfZZmVZOQjBuuVVlXQ-145" target="GCyfZZmVZOQjBuuVVlXQ-156" edge="1">
          <mxGeometry width="50" height="50" relative="1" as="geometry">
            <mxPoint x="786" y="255" as="sourcePoint" />
            <mxPoint x="1020" y="350" as="targetPoint" />
          </mxGeometry>
        </mxCell>
        <mxCell id="GCyfZZmVZOQjBuuVVlXQ-170" value="" style="endArrow=none;html=1;rounded=0;exitX=0.5;exitY=1;exitDx=0;exitDy=0;entryX=0.5;entryY=0;entryDx=0;entryDy=0;" parent="1" source="GCyfZZmVZOQjBuuVVlXQ-145" target="GCyfZZmVZOQjBuuVVlXQ-172" edge="1">
          <mxGeometry width="50" height="50" relative="1" as="geometry">
            <mxPoint x="786" y="255" as="sourcePoint" />
            <mxPoint x="1110" y="340" as="targetPoint" />
          </mxGeometry>
        </mxCell>
        <mxCell id="GCyfZZmVZOQjBuuVVlXQ-171" value="" style="endArrow=none;html=1;rounded=0;exitX=0.5;exitY=1;exitDx=0;exitDy=0;entryX=0.5;entryY=0;entryDx=0;entryDy=0;" parent="1" source="GCyfZZmVZOQjBuuVVlXQ-155" target="GCyfZZmVZOQjBuuVVlXQ-158" edge="1">
          <mxGeometry width="50" height="50" relative="1" as="geometry">
            <mxPoint x="786" y="255" as="sourcePoint" />
            <mxPoint x="920" y="350" as="targetPoint" />
          </mxGeometry>
        </mxCell>
        <mxCell id="GCyfZZmVZOQjBuuVVlXQ-172" value="N" style="ellipse;whiteSpace=wrap;html=1;aspect=fixed;" parent="1" vertex="1">
          <mxGeometry x="990" y="340" width="40" height="40" as="geometry" />
        </mxCell>
        <mxCell id="GCyfZZmVZOQjBuuVVlXQ-173" value="v" style="ellipse;whiteSpace=wrap;html=1;aspect=fixed;" parent="1" vertex="1">
          <mxGeometry x="720" y="510" width="40" height="40" as="geometry" />
        </mxCell>
        <mxCell id="GCyfZZmVZOQjBuuVVlXQ-174" value="t" style="ellipse;whiteSpace=wrap;html=1;aspect=fixed;" parent="1" vertex="1">
          <mxGeometry x="770" y="510" width="40" height="40" as="geometry" />
        </mxCell>
        <mxCell id="GCyfZZmVZOQjBuuVVlXQ-175" value="i" style="ellipse;whiteSpace=wrap;html=1;aspect=fixed;" parent="1" vertex="1">
          <mxGeometry x="820" y="510" width="40" height="40" as="geometry" />
        </mxCell>
        <mxCell id="GCyfZZmVZOQjBuuVVlXQ-176" value="=" style="ellipse;whiteSpace=wrap;html=1;aspect=fixed;" parent="1" vertex="1">
          <mxGeometry x="870" y="510" width="40" height="40" as="geometry" />
        </mxCell>
        <mxCell id="GCyfZZmVZOQjBuuVVlXQ-177" value="E" style="ellipse;whiteSpace=wrap;html=1;aspect=fixed;" parent="1" vertex="1">
          <mxGeometry x="920" y="510" width="40" height="40" as="geometry" />
        </mxCell>
        <mxCell id="GCyfZZmVZOQjBuuVVlXQ-178" value=";" style="ellipse;whiteSpace=wrap;html=1;aspect=fixed;" parent="1" vertex="1">
          <mxGeometry x="970" y="510" width="40" height="40" as="geometry" />
        </mxCell>
        <mxCell id="GCyfZZmVZOQjBuuVVlXQ-180" value="l" style="ellipse;whiteSpace=wrap;html=1;aspect=fixed;" parent="1" vertex="1">
          <mxGeometry x="870" y="560" width="40" height="40" as="geometry" />
        </mxCell>
        <mxCell id="GCyfZZmVZOQjBuuVVlXQ-181" value="" style="endArrow=none;html=1;rounded=0;exitX=0.5;exitY=1;exitDx=0;exitDy=0;entryX=0.5;entryY=0;entryDx=0;entryDy=0;" parent="1" source="GCyfZZmVZOQjBuuVVlXQ-172" target="GCyfZZmVZOQjBuuVVlXQ-173" edge="1">
          <mxGeometry width="50" height="50" relative="1" as="geometry">
            <mxPoint x="1064" y="495" as="sourcePoint" />
            <mxPoint x="1114" y="445" as="targetPoint" />
          </mxGeometry>
        </mxCell>
        <mxCell id="GCyfZZmVZOQjBuuVVlXQ-182" value="" style="endArrow=none;html=1;rounded=0;exitX=0.5;exitY=1;exitDx=0;exitDy=0;entryX=0.5;entryY=0;entryDx=0;entryDy=0;" parent="1" source="GCyfZZmVZOQjBuuVVlXQ-172" target="GCyfZZmVZOQjBuuVVlXQ-174" edge="1">
          <mxGeometry width="50" height="50" relative="1" as="geometry">
            <mxPoint x="1000" y="430" as="sourcePoint" />
            <mxPoint x="1134" y="525" as="targetPoint" />
          </mxGeometry>
        </mxCell>
        <mxCell id="GCyfZZmVZOQjBuuVVlXQ-183" value="" style="endArrow=none;html=1;rounded=0;exitX=0.5;exitY=1;exitDx=0;exitDy=0;entryX=0.5;entryY=0;entryDx=0;entryDy=0;" parent="1" source="GCyfZZmVZOQjBuuVVlXQ-172" target="GCyfZZmVZOQjBuuVVlXQ-175" edge="1">
          <mxGeometry width="50" height="50" relative="1" as="geometry">
            <mxPoint x="1100" y="430" as="sourcePoint" />
            <mxPoint x="1134" y="525" as="targetPoint" />
          </mxGeometry>
        </mxCell>
        <mxCell id="GCyfZZmVZOQjBuuVVlXQ-184" value="" style="endArrow=none;html=1;rounded=0;exitX=0.5;exitY=1;exitDx=0;exitDy=0;entryX=0.5;entryY=0;entryDx=0;entryDy=0;" parent="1" source="GCyfZZmVZOQjBuuVVlXQ-172" target="GCyfZZmVZOQjBuuVVlXQ-176" edge="1">
          <mxGeometry width="50" height="50" relative="1" as="geometry">
            <mxPoint x="1100" y="430" as="sourcePoint" />
            <mxPoint x="1234" y="525" as="targetPoint" />
          </mxGeometry>
        </mxCell>
        <mxCell id="GCyfZZmVZOQjBuuVVlXQ-185" value="" style="endArrow=none;html=1;rounded=0;exitX=0.5;exitY=1;exitDx=0;exitDy=0;entryX=0.5;entryY=0;entryDx=0;entryDy=0;" parent="1" source="GCyfZZmVZOQjBuuVVlXQ-172" target="GCyfZZmVZOQjBuuVVlXQ-177" edge="1">
          <mxGeometry width="50" height="50" relative="1" as="geometry">
            <mxPoint x="1100" y="430" as="sourcePoint" />
            <mxPoint x="1244" y="535" as="targetPoint" />
          </mxGeometry>
        </mxCell>
        <mxCell id="GCyfZZmVZOQjBuuVVlXQ-186" value="" style="endArrow=none;html=1;rounded=0;exitX=0.5;exitY=1;exitDx=0;exitDy=0;entryX=0.5;entryY=0;entryDx=0;entryDy=0;" parent="1" source="GCyfZZmVZOQjBuuVVlXQ-172" target="GCyfZZmVZOQjBuuVVlXQ-178" edge="1">
          <mxGeometry width="50" height="50" relative="1" as="geometry">
            <mxPoint x="1100" y="430" as="sourcePoint" />
            <mxPoint x="1334" y="525" as="targetPoint" />
          </mxGeometry>
        </mxCell>
        <mxCell id="GCyfZZmVZOQjBuuVVlXQ-187" value="" style="endArrow=none;html=1;rounded=0;exitX=0.5;exitY=1;exitDx=0;exitDy=0;entryX=0.5;entryY=0;entryDx=0;entryDy=0;" parent="1" source="GCyfZZmVZOQjBuuVVlXQ-172" target="GCyfZZmVZOQjBuuVVlXQ-189" edge="1">
          <mxGeometry width="50" height="50" relative="1" as="geometry">
            <mxPoint x="1100" y="430" as="sourcePoint" />
            <mxPoint x="1180" y="510" as="targetPoint" />
          </mxGeometry>
        </mxCell>
        <mxCell id="GCyfZZmVZOQjBuuVVlXQ-188" value="" style="endArrow=none;html=1;rounded=0;exitX=0.5;exitY=1;exitDx=0;exitDy=0;entryX=0.5;entryY=0;entryDx=0;entryDy=0;" parent="1" source="GCyfZZmVZOQjBuuVVlXQ-177" target="GCyfZZmVZOQjBuuVVlXQ-180" edge="1">
          <mxGeometry width="50" height="50" relative="1" as="geometry">
            <mxPoint x="816" y="425" as="sourcePoint" />
            <mxPoint x="1040" y="560" as="targetPoint" />
          </mxGeometry>
        </mxCell>
        <mxCell id="GCyfZZmVZOQjBuuVVlXQ-189" value="N" style="ellipse;whiteSpace=wrap;html=1;aspect=fixed;" parent="1" vertex="1">
          <mxGeometry x="1020" y="510" width="40" height="40" as="geometry" />
        </mxCell>
        <mxCell id="GCyfZZmVZOQjBuuVVlXQ-190" value="v" style="ellipse;whiteSpace=wrap;html=1;aspect=fixed;" parent="1" vertex="1">
          <mxGeometry x="780" y="640" width="40" height="40" as="geometry" />
        </mxCell>
        <mxCell id="GCyfZZmVZOQjBuuVVlXQ-191" value="t" style="ellipse;whiteSpace=wrap;html=1;aspect=fixed;" parent="1" vertex="1">
          <mxGeometry x="830" y="640" width="40" height="40" as="geometry" />
        </mxCell>
        <mxCell id="GCyfZZmVZOQjBuuVVlXQ-192" value="i" style="ellipse;whiteSpace=wrap;html=1;aspect=fixed;" parent="1" vertex="1">
          <mxGeometry x="880" y="640" width="40" height="40" as="geometry" />
        </mxCell>
        <mxCell id="GCyfZZmVZOQjBuuVVlXQ-193" value="=" style="ellipse;whiteSpace=wrap;html=1;aspect=fixed;" parent="1" vertex="1">
          <mxGeometry x="930" y="640" width="40" height="40" as="geometry" />
        </mxCell>
        <mxCell id="GCyfZZmVZOQjBuuVVlXQ-194" value="E" style="ellipse;whiteSpace=wrap;html=1;aspect=fixed;" parent="1" vertex="1">
          <mxGeometry x="980" y="640" width="40" height="40" as="geometry" />
        </mxCell>
        <mxCell id="GCyfZZmVZOQjBuuVVlXQ-195" value=";" style="ellipse;whiteSpace=wrap;html=1;aspect=fixed;" parent="1" vertex="1">
          <mxGeometry x="1030" y="640" width="40" height="40" as="geometry" />
        </mxCell>
        <mxCell id="GCyfZZmVZOQjBuuVVlXQ-196" value="" style="endArrow=none;html=1;rounded=0;exitX=0.5;exitY=1;exitDx=0;exitDy=0;entryX=0.5;entryY=0;entryDx=0;entryDy=0;" parent="1" source="GCyfZZmVZOQjBuuVVlXQ-189" target="GCyfZZmVZOQjBuuVVlXQ-190" edge="1">
          <mxGeometry width="50" height="50" relative="1" as="geometry">
            <mxPoint x="1154" y="625" as="sourcePoint" />
            <mxPoint x="1204" y="575" as="targetPoint" />
          </mxGeometry>
        </mxCell>
        <mxCell id="GCyfZZmVZOQjBuuVVlXQ-197" value="" style="endArrow=none;html=1;rounded=0;exitX=0.5;exitY=1;exitDx=0;exitDy=0;entryX=0.5;entryY=0;entryDx=0;entryDy=0;" parent="1" source="GCyfZZmVZOQjBuuVVlXQ-189" target="GCyfZZmVZOQjBuuVVlXQ-191" edge="1">
          <mxGeometry width="50" height="50" relative="1" as="geometry">
            <mxPoint x="1090" y="560" as="sourcePoint" />
            <mxPoint x="1224" y="655" as="targetPoint" />
          </mxGeometry>
        </mxCell>
        <mxCell id="GCyfZZmVZOQjBuuVVlXQ-198" value="" style="endArrow=none;html=1;rounded=0;exitX=0.5;exitY=1;exitDx=0;exitDy=0;entryX=0.5;entryY=0;entryDx=0;entryDy=0;" parent="1" source="GCyfZZmVZOQjBuuVVlXQ-189" target="GCyfZZmVZOQjBuuVVlXQ-192" edge="1">
          <mxGeometry width="50" height="50" relative="1" as="geometry">
            <mxPoint x="1190" y="560" as="sourcePoint" />
            <mxPoint x="1224" y="655" as="targetPoint" />
          </mxGeometry>
        </mxCell>
        <mxCell id="GCyfZZmVZOQjBuuVVlXQ-199" value="" style="endArrow=none;html=1;rounded=0;exitX=0.5;exitY=1;exitDx=0;exitDy=0;entryX=0.5;entryY=0;entryDx=0;entryDy=0;" parent="1" source="GCyfZZmVZOQjBuuVVlXQ-189" target="GCyfZZmVZOQjBuuVVlXQ-193" edge="1">
          <mxGeometry width="50" height="50" relative="1" as="geometry">
            <mxPoint x="1190" y="560" as="sourcePoint" />
            <mxPoint x="1324" y="655" as="targetPoint" />
          </mxGeometry>
        </mxCell>
        <mxCell id="GCyfZZmVZOQjBuuVVlXQ-200" value="" style="endArrow=none;html=1;rounded=0;exitX=0.5;exitY=1;exitDx=0;exitDy=0;entryX=0.5;entryY=0;entryDx=0;entryDy=0;" parent="1" source="GCyfZZmVZOQjBuuVVlXQ-189" target="GCyfZZmVZOQjBuuVVlXQ-194" edge="1">
          <mxGeometry width="50" height="50" relative="1" as="geometry">
            <mxPoint x="1190" y="560" as="sourcePoint" />
            <mxPoint x="1334" y="665" as="targetPoint" />
          </mxGeometry>
        </mxCell>
        <mxCell id="GCyfZZmVZOQjBuuVVlXQ-201" value="" style="endArrow=none;html=1;rounded=0;exitX=0.5;exitY=1;exitDx=0;exitDy=0;entryX=0.5;entryY=0;entryDx=0;entryDy=0;" parent="1" source="GCyfZZmVZOQjBuuVVlXQ-189" target="GCyfZZmVZOQjBuuVVlXQ-195" edge="1">
          <mxGeometry width="50" height="50" relative="1" as="geometry">
            <mxPoint x="1190" y="560" as="sourcePoint" />
            <mxPoint x="1424" y="655" as="targetPoint" />
          </mxGeometry>
        </mxCell>
        <mxCell id="GCyfZZmVZOQjBuuVVlXQ-202" value="" style="endArrow=none;html=1;rounded=0;exitX=0.5;exitY=1;exitDx=0;exitDy=0;entryX=0.5;entryY=0;entryDx=0;entryDy=0;" parent="1" source="GCyfZZmVZOQjBuuVVlXQ-189" target="GCyfZZmVZOQjBuuVVlXQ-203" edge="1">
          <mxGeometry width="50" height="50" relative="1" as="geometry">
            <mxPoint x="1190" y="560" as="sourcePoint" />
            <mxPoint x="1514" y="645" as="targetPoint" />
          </mxGeometry>
        </mxCell>
        <mxCell id="GCyfZZmVZOQjBuuVVlXQ-203" value="N" style="ellipse;whiteSpace=wrap;html=1;aspect=fixed;" parent="1" vertex="1">
          <mxGeometry x="1080" y="640" width="40" height="40" as="geometry" />
        </mxCell>
        <mxCell id="GCyfZZmVZOQjBuuVVlXQ-204" value="i&lt;span style=&quot;color: rgba(0, 0, 0, 0); font-family: monospace; font-size: 0px; text-align: start; text-wrap-mode: nowrap;&quot;&gt;%3CmxGraphModel%3E%3Croot%3E%3CmxCell%20id%3D%220%22%2F%3E%3CmxCell%20id%3D%221%22%20parent%3D%220%22%2F%3E%3CmxCell%20id%3D%222%22%20value%3D%22l%22%20style%3D%22ellipse%3BwhiteSpace%3Dwrap%3Bhtml%3D1%3Baspect%3Dfixed%3B%22%20vertex%3D%221%22%20parent%3D%221%22%3E%3CmxGeometry%20x%3D%221060%22%20y%3D%22560%22%20width%3D%2240%22%20height%3D%2240%22%20as%3D%22geometry%22%2F%3E%3C%2FmxCell%3E%3C%2Froot%3E%3C%2FmxGraphModel%3E&lt;/span&gt;" style="ellipse;whiteSpace=wrap;html=1;aspect=fixed;" parent="1" vertex="1">
          <mxGeometry x="780" y="740" width="40" height="40" as="geometry" />
        </mxCell>
        <mxCell id="GCyfZZmVZOQjBuuVVlXQ-205" value="(" style="ellipse;whiteSpace=wrap;html=1;aspect=fixed;" parent="1" vertex="1">
          <mxGeometry x="830" y="740" width="40" height="40" as="geometry" />
        </mxCell>
        <mxCell id="GCyfZZmVZOQjBuuVVlXQ-206" value="W" style="ellipse;whiteSpace=wrap;html=1;aspect=fixed;" parent="1" vertex="1">
          <mxGeometry x="880" y="740" width="40" height="40" as="geometry" />
        </mxCell>
        <mxCell id="GCyfZZmVZOQjBuuVVlXQ-207" value=")" style="ellipse;whiteSpace=wrap;html=1;aspect=fixed;" parent="1" vertex="1">
          <mxGeometry x="930" y="740" width="40" height="40" as="geometry" />
        </mxCell>
        <mxCell id="GCyfZZmVZOQjBuuVVlXQ-208" value="" style="endArrow=none;html=1;rounded=0;exitX=0.5;exitY=1;exitDx=0;exitDy=0;entryX=0.5;entryY=0;entryDx=0;entryDy=0;" parent="1" source="GCyfZZmVZOQjBuuVVlXQ-194" target="GCyfZZmVZOQjBuuVVlXQ-204" edge="1">
          <mxGeometry width="50" height="50" relative="1" as="geometry">
            <mxPoint x="1190" y="560" as="sourcePoint" />
            <mxPoint x="1030" y="680" as="targetPoint" />
          </mxGeometry>
        </mxCell>
        <mxCell id="GCyfZZmVZOQjBuuVVlXQ-209" value="" style="endArrow=none;html=1;rounded=0;entryX=0.5;entryY=0;entryDx=0;entryDy=0;exitX=0.5;exitY=1;exitDx=0;exitDy=0;" parent="1" source="GCyfZZmVZOQjBuuVVlXQ-194" target="GCyfZZmVZOQjBuuVVlXQ-205" edge="1">
          <mxGeometry width="50" height="50" relative="1" as="geometry">
            <mxPoint x="1190" y="720" as="sourcePoint" />
            <mxPoint x="1030" y="750" as="targetPoint" />
          </mxGeometry>
        </mxCell>
        <mxCell id="GCyfZZmVZOQjBuuVVlXQ-210" value="" style="endArrow=none;html=1;rounded=0;entryX=0.5;entryY=0;entryDx=0;entryDy=0;exitX=0.5;exitY=1;exitDx=0;exitDy=0;" parent="1" source="GCyfZZmVZOQjBuuVVlXQ-194" target="GCyfZZmVZOQjBuuVVlXQ-206" edge="1">
          <mxGeometry width="50" height="50" relative="1" as="geometry">
            <mxPoint x="1180" y="720" as="sourcePoint" />
            <mxPoint x="1080" y="750" as="targetPoint" />
          </mxGeometry>
        </mxCell>
        <mxCell id="GCyfZZmVZOQjBuuVVlXQ-211" value="" style="endArrow=none;html=1;rounded=0;entryX=0.5;entryY=0;entryDx=0;entryDy=0;exitX=0.5;exitY=1;exitDx=0;exitDy=0;" parent="1" source="GCyfZZmVZOQjBuuVVlXQ-194" target="GCyfZZmVZOQjBuuVVlXQ-207" edge="1">
          <mxGeometry width="50" height="50" relative="1" as="geometry">
            <mxPoint x="1180" y="720" as="sourcePoint" />
            <mxPoint x="1130" y="750" as="targetPoint" />
          </mxGeometry>
        </mxCell>
        <mxCell id="GCyfZZmVZOQjBuuVVlXQ-212" value="i&lt;span style=&quot;color: rgba(0, 0, 0, 0); font-family: monospace; font-size: 0px; text-align: start; text-wrap-mode: nowrap;&quot;&gt;%3CmxGraphModel%3E%3Croot%3E%3CmxCell%20id%3D%220%22%2F%3E%3CmxCell%20id%3D%221%22%20parent%3D%220%22%2F%3E%3CmxCell%20id%3D%222%22%20value%3D%22l%22%20style%3D%22ellipse%3BwhiteSpace%3Dwrap%3Bhtml%3D1%3Baspect%3Dfixed%3B%22%20vertex%3D%221%22%20parent%3D%221%22%3E%3CmxGeometry%20x%3D%221060%22%20y%3D%22560%22%20width%3D%2240%22%20height%3D%2240%22%20as%3D%22geometry%22%2F%3E%3C%2FmxCell%3E%3C%2Froot%3E%3C%2FmxGraphModel%3E&lt;/span&gt;" style="ellipse;whiteSpace=wrap;html=1;aspect=fixed;" parent="1" vertex="1">
          <mxGeometry x="780" y="800" width="40" height="40" as="geometry" />
        </mxCell>
        <mxCell id="GCyfZZmVZOQjBuuVVlXQ-213" value="," style="ellipse;whiteSpace=wrap;html=1;aspect=fixed;" parent="1" vertex="1">
          <mxGeometry x="830" y="800" width="40" height="40" as="geometry" />
        </mxCell>
        <mxCell id="GCyfZZmVZOQjBuuVVlXQ-214" value="W" style="ellipse;whiteSpace=wrap;html=1;aspect=fixed;" parent="1" vertex="1">
          <mxGeometry x="880" y="800" width="40" height="40" as="geometry" />
        </mxCell>
        <mxCell id="GCyfZZmVZOQjBuuVVlXQ-215" value="i&lt;span style=&quot;color: rgba(0, 0, 0, 0); font-family: monospace; font-size: 0px; text-align: start; text-wrap-mode: nowrap;&quot;&gt;%3CmxGraphModel%3E%3Croot%3E%3CmxCell%20id%3D%220%22%2F%3E%3CmxCell%20id%3D%221%22%20parent%3D%220%22%2F%3E%3CmxCell%20id%3D%222%22%20value%3D%22l%22%20style%3D%22ellipse%3BwhiteSpace%3Dwrap%3Bhtml%3D1%3Baspect%3Dfixed%3B%22%20vertex%3D%221%22%20parent%3D%221%22%3E%3CmxGeometry%20x%3D%221060%22%20y%3D%22560%22%20width%3D%2240%22%20height%3D%2240%22%20as%3D%22geometry%22%2F%3E%3C%2FmxCell%3E%3C%2Froot%3E%3C%2FmxGraphModel%3E&lt;/span&gt;" style="ellipse;whiteSpace=wrap;html=1;aspect=fixed;" parent="1" vertex="1">
          <mxGeometry x="830" y="850" width="40" height="40" as="geometry" />
        </mxCell>
        <mxCell id="GCyfZZmVZOQjBuuVVlXQ-216" value="" style="endArrow=none;html=1;rounded=0;entryX=0.5;entryY=0;entryDx=0;entryDy=0;exitX=0.5;exitY=1;exitDx=0;exitDy=0;" parent="1" source="GCyfZZmVZOQjBuuVVlXQ-206" target="GCyfZZmVZOQjBuuVVlXQ-214" edge="1">
          <mxGeometry width="50" height="50" relative="1" as="geometry">
            <mxPoint x="1040" y="730" as="sourcePoint" />
            <mxPoint x="1040" y="750" as="targetPoint" />
          </mxGeometry>
        </mxCell>
        <mxCell id="GCyfZZmVZOQjBuuVVlXQ-217" value="" style="endArrow=none;html=1;rounded=0;entryX=0.5;entryY=0;entryDx=0;entryDy=0;exitX=0.5;exitY=1;exitDx=0;exitDy=0;" parent="1" source="GCyfZZmVZOQjBuuVVlXQ-206" target="GCyfZZmVZOQjBuuVVlXQ-213" edge="1">
          <mxGeometry width="50" height="50" relative="1" as="geometry">
            <mxPoint x="990" y="790" as="sourcePoint" />
            <mxPoint x="990" y="810" as="targetPoint" />
          </mxGeometry>
        </mxCell>
        <mxCell id="GCyfZZmVZOQjBuuVVlXQ-218" value="" style="endArrow=none;html=1;rounded=0;entryX=0.5;entryY=0;entryDx=0;entryDy=0;exitX=0.5;exitY=1;exitDx=0;exitDy=0;" parent="1" source="GCyfZZmVZOQjBuuVVlXQ-206" target="GCyfZZmVZOQjBuuVVlXQ-212" edge="1">
          <mxGeometry width="50" height="50" relative="1" as="geometry">
            <mxPoint x="990" y="790" as="sourcePoint" />
            <mxPoint x="940" y="810" as="targetPoint" />
          </mxGeometry>
        </mxCell>
        <mxCell id="GCyfZZmVZOQjBuuVVlXQ-219" value="" style="endArrow=none;html=1;rounded=0;entryX=0.5;entryY=0;entryDx=0;entryDy=0;exitX=0.5;exitY=1;exitDx=0;exitDy=0;" parent="1" source="GCyfZZmVZOQjBuuVVlXQ-214" target="GCyfZZmVZOQjBuuVVlXQ-215" edge="1">
          <mxGeometry width="50" height="50" relative="1" as="geometry">
            <mxPoint x="990" y="790" as="sourcePoint" />
            <mxPoint x="890" y="810" as="targetPoint" />
          </mxGeometry>
        </mxCell>
        <mxCell id="GCyfZZmVZOQjBuuVVlXQ-220" value="z" style="ellipse;whiteSpace=wrap;html=1;aspect=fixed;" parent="1" vertex="1">
          <mxGeometry x="980" y="740" width="40" height="40" as="geometry" />
        </mxCell>
        <mxCell id="GCyfZZmVZOQjBuuVVlXQ-221" value="(" style="ellipse;whiteSpace=wrap;html=1;aspect=fixed;" parent="1" vertex="1">
          <mxGeometry x="1030" y="740" width="40" height="40" as="geometry" />
        </mxCell>
        <mxCell id="GCyfZZmVZOQjBuuVVlXQ-222" value="E" style="ellipse;whiteSpace=wrap;html=1;aspect=fixed;" parent="1" vertex="1">
          <mxGeometry x="1080" y="740" width="40" height="40" as="geometry" />
        </mxCell>
        <mxCell id="GCyfZZmVZOQjBuuVVlXQ-223" value=")" style="ellipse;whiteSpace=wrap;html=1;aspect=fixed;" parent="1" vertex="1">
          <mxGeometry x="1130" y="740" width="40" height="40" as="geometry" />
        </mxCell>
        <mxCell id="GCyfZZmVZOQjBuuVVlXQ-224" value="{" style="ellipse;whiteSpace=wrap;html=1;aspect=fixed;" parent="1" vertex="1">
          <mxGeometry x="1180" y="740" width="40" height="40" as="geometry" />
        </mxCell>
        <mxCell id="GCyfZZmVZOQjBuuVVlXQ-225" value="N" style="ellipse;whiteSpace=wrap;html=1;aspect=fixed;" parent="1" vertex="1">
          <mxGeometry x="1230" y="740" width="40" height="40" as="geometry" />
        </mxCell>
        <mxCell id="GCyfZZmVZOQjBuuVVlXQ-226" value="}" style="ellipse;whiteSpace=wrap;html=1;aspect=fixed;" parent="1" vertex="1">
          <mxGeometry x="1280" y="740" width="40" height="40" as="geometry" />
        </mxCell>
        <mxCell id="GCyfZZmVZOQjBuuVVlXQ-227" value="e" style="ellipse;whiteSpace=wrap;html=1;aspect=fixed;" parent="1" vertex="1">
          <mxGeometry x="1330" y="740" width="40" height="40" as="geometry" />
        </mxCell>
        <mxCell id="GCyfZZmVZOQjBuuVVlXQ-228" value="{" style="ellipse;whiteSpace=wrap;html=1;aspect=fixed;" parent="1" vertex="1">
          <mxGeometry x="1380" y="740" width="40" height="40" as="geometry" />
        </mxCell>
        <mxCell id="GCyfZZmVZOQjBuuVVlXQ-229" value="N" style="ellipse;whiteSpace=wrap;html=1;aspect=fixed;" parent="1" vertex="1">
          <mxGeometry x="1430" y="740" width="40" height="40" as="geometry" />
        </mxCell>
        <mxCell id="GCyfZZmVZOQjBuuVVlXQ-230" value="}" style="ellipse;whiteSpace=wrap;html=1;aspect=fixed;" parent="1" vertex="1">
          <mxGeometry x="1480" y="740" width="40" height="40" as="geometry" />
        </mxCell>
        <mxCell id="GCyfZZmVZOQjBuuVVlXQ-231" value="N" style="ellipse;whiteSpace=wrap;html=1;aspect=fixed;" parent="1" vertex="1">
          <mxGeometry x="1530" y="740" width="40" height="40" as="geometry" />
        </mxCell>
        <mxCell id="GCyfZZmVZOQjBuuVVlXQ-233" value="" style="endArrow=none;html=1;rounded=0;entryX=0.5;entryY=0;entryDx=0;entryDy=0;exitX=0.5;exitY=1;exitDx=0;exitDy=0;" parent="1" source="GCyfZZmVZOQjBuuVVlXQ-203" target="GCyfZZmVZOQjBuuVVlXQ-220" edge="1">
          <mxGeometry width="50" height="50" relative="1" as="geometry">
            <mxPoint x="1010" y="690" as="sourcePoint" />
            <mxPoint x="960" y="710" as="targetPoint" />
          </mxGeometry>
        </mxCell>
        <mxCell id="GCyfZZmVZOQjBuuVVlXQ-234" value="" style="endArrow=none;html=1;rounded=0;entryX=0.5;entryY=0;entryDx=0;entryDy=0;exitX=0.5;exitY=1;exitDx=0;exitDy=0;" parent="1" source="GCyfZZmVZOQjBuuVVlXQ-203" target="GCyfZZmVZOQjBuuVVlXQ-221" edge="1">
          <mxGeometry width="50" height="50" relative="1" as="geometry">
            <mxPoint x="1110" y="690" as="sourcePoint" />
            <mxPoint x="1060" y="710" as="targetPoint" />
          </mxGeometry>
        </mxCell>
        <mxCell id="GCyfZZmVZOQjBuuVVlXQ-235" value="" style="endArrow=none;html=1;rounded=1;entryX=0.5;entryY=0;entryDx=0;entryDy=0;exitX=0.5;exitY=1;exitDx=0;exitDy=0;curved=0;" parent="1" source="GCyfZZmVZOQjBuuVVlXQ-203" target="GCyfZZmVZOQjBuuVVlXQ-222" edge="1">
          <mxGeometry width="50" height="50" relative="1" as="geometry">
            <mxPoint x="1110" y="690" as="sourcePoint" />
            <mxPoint x="1110" y="710" as="targetPoint" />
          </mxGeometry>
        </mxCell>
        <mxCell id="GCyfZZmVZOQjBuuVVlXQ-238" value="" style="endArrow=none;html=1;rounded=1;entryX=0.5;entryY=0;entryDx=0;entryDy=0;exitX=0.5;exitY=1;exitDx=0;exitDy=0;curved=0;" parent="1" source="GCyfZZmVZOQjBuuVVlXQ-203" target="GCyfZZmVZOQjBuuVVlXQ-223" edge="1">
          <mxGeometry width="50" height="50" relative="1" as="geometry">
            <mxPoint x="1110" y="690" as="sourcePoint" />
            <mxPoint x="1160" y="710" as="targetPoint" />
          </mxGeometry>
        </mxCell>
        <mxCell id="GCyfZZmVZOQjBuuVVlXQ-239" value="" style="endArrow=none;html=1;rounded=1;entryX=0.5;entryY=0;entryDx=0;entryDy=0;exitX=0.5;exitY=1;exitDx=0;exitDy=0;curved=0;" parent="1" source="GCyfZZmVZOQjBuuVVlXQ-203" target="GCyfZZmVZOQjBuuVVlXQ-224" edge="1">
          <mxGeometry width="50" height="50" relative="1" as="geometry">
            <mxPoint x="1110" y="690" as="sourcePoint" />
            <mxPoint x="1210" y="710" as="targetPoint" />
          </mxGeometry>
        </mxCell>
        <mxCell id="GCyfZZmVZOQjBuuVVlXQ-240" value="" style="endArrow=none;html=1;rounded=1;entryX=0.5;entryY=0;entryDx=0;entryDy=0;exitX=0.5;exitY=1;exitDx=0;exitDy=0;curved=0;" parent="1" source="GCyfZZmVZOQjBuuVVlXQ-203" target="GCyfZZmVZOQjBuuVVlXQ-225" edge="1">
          <mxGeometry width="50" height="50" relative="1" as="geometry">
            <mxPoint x="1110" y="690" as="sourcePoint" />
            <mxPoint x="1260" y="710" as="targetPoint" />
          </mxGeometry>
        </mxCell>
        <mxCell id="GCyfZZmVZOQjBuuVVlXQ-241" value="" style="endArrow=none;html=1;rounded=1;entryX=0.5;entryY=0;entryDx=0;entryDy=0;exitX=0.5;exitY=1;exitDx=0;exitDy=0;curved=0;" parent="1" source="GCyfZZmVZOQjBuuVVlXQ-203" target="GCyfZZmVZOQjBuuVVlXQ-226" edge="1">
          <mxGeometry width="50" height="50" relative="1" as="geometry">
            <mxPoint x="1110" y="690" as="sourcePoint" />
            <mxPoint x="1310" y="710" as="targetPoint" />
          </mxGeometry>
        </mxCell>
        <mxCell id="GCyfZZmVZOQjBuuVVlXQ-242" value="" style="endArrow=none;html=1;rounded=1;entryX=0.5;entryY=0;entryDx=0;entryDy=0;exitX=0.5;exitY=1;exitDx=0;exitDy=0;curved=0;" parent="1" source="GCyfZZmVZOQjBuuVVlXQ-203" target="GCyfZZmVZOQjBuuVVlXQ-227" edge="1">
          <mxGeometry width="50" height="50" relative="1" as="geometry">
            <mxPoint x="1110" y="690" as="sourcePoint" />
            <mxPoint x="1360" y="710" as="targetPoint" />
          </mxGeometry>
        </mxCell>
        <mxCell id="GCyfZZmVZOQjBuuVVlXQ-243" value="" style="endArrow=none;html=1;rounded=1;entryX=0.5;entryY=0;entryDx=0;entryDy=0;exitX=0.5;exitY=1;exitDx=0;exitDy=0;curved=0;" parent="1" source="GCyfZZmVZOQjBuuVVlXQ-203" target="GCyfZZmVZOQjBuuVVlXQ-228" edge="1">
          <mxGeometry width="50" height="50" relative="1" as="geometry">
            <mxPoint x="1120" y="700" as="sourcePoint" />
            <mxPoint x="1410" y="710" as="targetPoint" />
          </mxGeometry>
        </mxCell>
        <mxCell id="GCyfZZmVZOQjBuuVVlXQ-244" value="" style="endArrow=none;html=1;rounded=1;entryX=0.5;entryY=0;entryDx=0;entryDy=0;exitX=0.5;exitY=1;exitDx=0;exitDy=0;curved=0;" parent="1" source="GCyfZZmVZOQjBuuVVlXQ-203" target="GCyfZZmVZOQjBuuVVlXQ-229" edge="1">
          <mxGeometry width="50" height="50" relative="1" as="geometry">
            <mxPoint x="1110" y="690" as="sourcePoint" />
            <mxPoint x="1460" y="710" as="targetPoint" />
          </mxGeometry>
        </mxCell>
        <mxCell id="GCyfZZmVZOQjBuuVVlXQ-245" value="" style="endArrow=none;html=1;rounded=1;entryX=0.5;entryY=0;entryDx=0;entryDy=0;exitX=0.5;exitY=1;exitDx=0;exitDy=0;curved=0;" parent="1" source="GCyfZZmVZOQjBuuVVlXQ-203" target="GCyfZZmVZOQjBuuVVlXQ-230" edge="1">
          <mxGeometry width="50" height="50" relative="1" as="geometry">
            <mxPoint x="1110" y="690" as="sourcePoint" />
            <mxPoint x="1510" y="710" as="targetPoint" />
          </mxGeometry>
        </mxCell>
        <mxCell id="GCyfZZmVZOQjBuuVVlXQ-246" value="" style="endArrow=none;html=1;rounded=1;entryX=0.5;entryY=0;entryDx=0;entryDy=0;exitX=0.5;exitY=1;exitDx=0;exitDy=0;curved=0;" parent="1" source="GCyfZZmVZOQjBuuVVlXQ-203" target="GCyfZZmVZOQjBuuVVlXQ-231" edge="1">
          <mxGeometry width="50" height="50" relative="1" as="geometry">
            <mxPoint x="1110" y="690" as="sourcePoint" />
            <mxPoint x="1560" y="710" as="targetPoint" />
          </mxGeometry>
        </mxCell>
        <mxCell id="GCyfZZmVZOQjBuuVVlXQ-247" value="i" style="ellipse;whiteSpace=wrap;html=1;aspect=fixed;" parent="1" vertex="1">
          <mxGeometry x="980" y="800" width="40" height="40" as="geometry" />
        </mxCell>
        <mxCell id="GCyfZZmVZOQjBuuVVlXQ-248" value="M" style="ellipse;whiteSpace=wrap;html=1;aspect=fixed;" parent="1" vertex="1">
          <mxGeometry x="1030" y="800" width="40" height="40" as="geometry" />
        </mxCell>
        <mxCell id="GCyfZZmVZOQjBuuVVlXQ-249" value="&amp;gt;" style="ellipse;whiteSpace=wrap;html=1;aspect=fixed;" parent="1" vertex="1">
          <mxGeometry x="980" y="850" width="40" height="40" as="geometry" />
        </mxCell>
        <mxCell id="GCyfZZmVZOQjBuuVVlXQ-250" value="E" style="ellipse;whiteSpace=wrap;html=1;aspect=fixed;" parent="1" vertex="1">
          <mxGeometry x="1030" y="850" width="40" height="40" as="geometry" />
        </mxCell>
        <mxCell id="GCyfZZmVZOQjBuuVVlXQ-251" value="" style="endArrow=none;html=1;rounded=0;entryX=0.5;entryY=1;entryDx=0;entryDy=0;exitX=0.5;exitY=0;exitDx=0;exitDy=0;" parent="1" source="GCyfZZmVZOQjBuuVVlXQ-250" target="GCyfZZmVZOQjBuuVVlXQ-248" edge="1">
          <mxGeometry width="50" height="50" relative="1" as="geometry">
            <mxPoint x="1060" y="820" as="sourcePoint" />
            <mxPoint x="1060" y="800" as="targetPoint" />
          </mxGeometry>
        </mxCell>
        <mxCell id="GCyfZZmVZOQjBuuVVlXQ-252" value="" style="endArrow=none;html=1;rounded=0;entryX=0.5;entryY=1;entryDx=0;entryDy=0;exitX=0.5;exitY=0;exitDx=0;exitDy=0;" parent="1" source="GCyfZZmVZOQjBuuVVlXQ-249" target="GCyfZZmVZOQjBuuVVlXQ-248" edge="1">
          <mxGeometry width="50" height="50" relative="1" as="geometry">
            <mxPoint x="1060" y="880" as="sourcePoint" />
            <mxPoint x="1060" y="860" as="targetPoint" />
          </mxGeometry>
        </mxCell>
        <mxCell id="GCyfZZmVZOQjBuuVVlXQ-253" value="l" style="ellipse;whiteSpace=wrap;html=1;aspect=fixed;" parent="1" vertex="1">
          <mxGeometry x="1030" y="900" width="40" height="40" as="geometry" />
        </mxCell>
        <mxCell id="GCyfZZmVZOQjBuuVVlXQ-254" value="" style="endArrow=none;html=1;rounded=0;entryX=0.5;entryY=1;entryDx=0;entryDy=0;exitX=0.5;exitY=0;exitDx=0;exitDy=0;" parent="1" source="GCyfZZmVZOQjBuuVVlXQ-253" target="GCyfZZmVZOQjBuuVVlXQ-250" edge="1">
          <mxGeometry width="50" height="50" relative="1" as="geometry">
            <mxPoint x="1060" y="860" as="sourcePoint" />
            <mxPoint x="1060" y="850" as="targetPoint" />
          </mxGeometry>
        </mxCell>
        <mxCell id="GCyfZZmVZOQjBuuVVlXQ-255" value="" style="endArrow=none;html=1;rounded=1;entryX=0.5;entryY=0;entryDx=0;entryDy=0;exitX=0.5;exitY=1;exitDx=0;exitDy=0;curved=0;" parent="1" source="GCyfZZmVZOQjBuuVVlXQ-222" target="GCyfZZmVZOQjBuuVVlXQ-248" edge="1">
          <mxGeometry width="50" height="50" relative="1" as="geometry">
            <mxPoint x="1110" y="690" as="sourcePoint" />
            <mxPoint x="1110" y="750" as="targetPoint" />
          </mxGeometry>
        </mxCell>
        <mxCell id="GCyfZZmVZOQjBuuVVlXQ-256" value="(" style="ellipse;whiteSpace=wrap;html=1;aspect=fixed;" parent="1" vertex="1">
          <mxGeometry x="1155" y="800" width="40" height="40" as="geometry" />
        </mxCell>
        <mxCell id="GCyfZZmVZOQjBuuVVlXQ-257" value="E" style="ellipse;whiteSpace=wrap;html=1;aspect=fixed;" parent="1" vertex="1">
          <mxGeometry x="1205" y="800" width="40" height="40" as="geometry" />
        </mxCell>
        <mxCell id="GCyfZZmVZOQjBuuVVlXQ-258" value=")" style="ellipse;whiteSpace=wrap;html=1;aspect=fixed;" parent="1" vertex="1">
          <mxGeometry x="1255" y="800" width="40" height="40" as="geometry" />
        </mxCell>
        <mxCell id="GCyfZZmVZOQjBuuVVlXQ-259" value=";" style="ellipse;whiteSpace=wrap;html=1;aspect=fixed;" parent="1" vertex="1">
          <mxGeometry x="1305" y="800" width="40" height="40" as="geometry" />
        </mxCell>
        <mxCell id="GCyfZZmVZOQjBuuVVlXQ-260" value="N" style="ellipse;whiteSpace=wrap;html=1;aspect=fixed;" parent="1" vertex="1">
          <mxGeometry x="1355" y="800" width="40" height="40" as="geometry" />
        </mxCell>
        <mxCell id="GCyfZZmVZOQjBuuVVlXQ-261" value="p" style="ellipse;whiteSpace=wrap;html=1;aspect=fixed;" parent="1" vertex="1">
          <mxGeometry x="1105" y="800" width="40" height="40" as="geometry" />
        </mxCell>
        <mxCell id="GCyfZZmVZOQjBuuVVlXQ-262" value="" style="endArrow=none;html=1;rounded=1;entryX=0.5;entryY=0;entryDx=0;entryDy=0;exitX=0.5;exitY=1;exitDx=0;exitDy=0;curved=0;" parent="1" source="GCyfZZmVZOQjBuuVVlXQ-225" target="GCyfZZmVZOQjBuuVVlXQ-261" edge="1">
          <mxGeometry width="50" height="50" relative="1" as="geometry">
            <mxPoint x="1110" y="790" as="sourcePoint" />
            <mxPoint x="1060" y="810" as="targetPoint" />
          </mxGeometry>
        </mxCell>
        <mxCell id="GCyfZZmVZOQjBuuVVlXQ-263" value="" style="endArrow=none;html=1;rounded=1;entryX=0.5;entryY=0;entryDx=0;entryDy=0;exitX=0.5;exitY=1;exitDx=0;exitDy=0;curved=0;" parent="1" source="GCyfZZmVZOQjBuuVVlXQ-225" target="GCyfZZmVZOQjBuuVVlXQ-256" edge="1">
          <mxGeometry width="50" height="50" relative="1" as="geometry">
            <mxPoint x="1260" y="790" as="sourcePoint" />
            <mxPoint x="1135" y="810" as="targetPoint" />
          </mxGeometry>
        </mxCell>
        <mxCell id="GCyfZZmVZOQjBuuVVlXQ-264" value="" style="endArrow=none;html=1;rounded=1;entryX=0.5;entryY=0;entryDx=0;entryDy=0;exitX=0.5;exitY=1;exitDx=0;exitDy=0;curved=0;" parent="1" source="GCyfZZmVZOQjBuuVVlXQ-225" target="GCyfZZmVZOQjBuuVVlXQ-257" edge="1">
          <mxGeometry width="50" height="50" relative="1" as="geometry">
            <mxPoint x="1260" y="790" as="sourcePoint" />
            <mxPoint x="1185" y="810" as="targetPoint" />
          </mxGeometry>
        </mxCell>
        <mxCell id="GCyfZZmVZOQjBuuVVlXQ-265" value="" style="endArrow=none;html=1;rounded=1;entryX=0.5;entryY=0;entryDx=0;entryDy=0;exitX=0.5;exitY=1;exitDx=0;exitDy=0;curved=0;" parent="1" source="GCyfZZmVZOQjBuuVVlXQ-225" target="GCyfZZmVZOQjBuuVVlXQ-258" edge="1">
          <mxGeometry width="50" height="50" relative="1" as="geometry">
            <mxPoint x="1260" y="790" as="sourcePoint" />
            <mxPoint x="1235" y="810" as="targetPoint" />
          </mxGeometry>
        </mxCell>
        <mxCell id="GCyfZZmVZOQjBuuVVlXQ-266" value="" style="endArrow=none;html=1;rounded=1;entryX=0.5;entryY=0;entryDx=0;entryDy=0;exitX=0.5;exitY=1;exitDx=0;exitDy=0;curved=0;" parent="1" source="GCyfZZmVZOQjBuuVVlXQ-225" target="GCyfZZmVZOQjBuuVVlXQ-259" edge="1">
          <mxGeometry width="50" height="50" relative="1" as="geometry">
            <mxPoint x="1260" y="790" as="sourcePoint" />
            <mxPoint x="1285" y="810" as="targetPoint" />
          </mxGeometry>
        </mxCell>
        <mxCell id="GCyfZZmVZOQjBuuVVlXQ-267" value="" style="endArrow=none;html=1;rounded=1;entryX=0.5;entryY=0;entryDx=0;entryDy=0;exitX=0.5;exitY=1;exitDx=0;exitDy=0;curved=0;" parent="1" source="GCyfZZmVZOQjBuuVVlXQ-225" target="GCyfZZmVZOQjBuuVVlXQ-260" edge="1">
          <mxGeometry width="50" height="50" relative="1" as="geometry">
            <mxPoint x="1260" y="790" as="sourcePoint" />
            <mxPoint x="1335" y="810" as="targetPoint" />
          </mxGeometry>
        </mxCell>
        <mxCell id="GCyfZZmVZOQjBuuVVlXQ-268" value="i" style="ellipse;whiteSpace=wrap;html=1;aspect=fixed;" parent="1" vertex="1">
          <mxGeometry x="1155" y="850" width="40" height="40" as="geometry" />
        </mxCell>
        <mxCell id="GCyfZZmVZOQjBuuVVlXQ-269" value="" style="endArrow=none;html=1;rounded=0;entryX=0.5;entryY=1;entryDx=0;entryDy=0;exitX=0.5;exitY=0;exitDx=0;exitDy=0;" parent="1" source="GCyfZZmVZOQjBuuVVlXQ-268" target="GCyfZZmVZOQjBuuVVlXQ-257" edge="1">
          <mxGeometry width="50" height="50" relative="1" as="geometry">
            <mxPoint x="1060" y="910" as="sourcePoint" />
            <mxPoint x="1060" y="900" as="targetPoint" />
          </mxGeometry>
        </mxCell>
        <mxCell id="GCyfZZmVZOQjBuuVVlXQ-270" value="(" style="ellipse;whiteSpace=wrap;html=1;aspect=fixed;" parent="1" vertex="1">
          <mxGeometry x="1205" y="900" width="40" height="40" as="geometry" />
        </mxCell>
        <mxCell id="GCyfZZmVZOQjBuuVVlXQ-271" value="E" style="ellipse;whiteSpace=wrap;html=1;aspect=fixed;" parent="1" vertex="1">
          <mxGeometry x="1255" y="900" width="40" height="40" as="geometry" />
        </mxCell>
        <mxCell id="GCyfZZmVZOQjBuuVVlXQ-272" value=")" style="ellipse;whiteSpace=wrap;html=1;aspect=fixed;" parent="1" vertex="1">
          <mxGeometry x="1305" y="900" width="40" height="40" as="geometry" />
        </mxCell>
        <mxCell id="GCyfZZmVZOQjBuuVVlXQ-273" value=";" style="ellipse;whiteSpace=wrap;html=1;aspect=fixed;" parent="1" vertex="1">
          <mxGeometry x="1355" y="900" width="40" height="40" as="geometry" />
        </mxCell>
        <mxCell id="GCyfZZmVZOQjBuuVVlXQ-274" value="p" style="ellipse;whiteSpace=wrap;html=1;aspect=fixed;" parent="1" vertex="1">
          <mxGeometry x="1155" y="900" width="40" height="40" as="geometry" />
        </mxCell>
        <mxCell id="GCyfZZmVZOQjBuuVVlXQ-275" value="" style="endArrow=none;html=1;rounded=0;entryX=0.5;entryY=1;entryDx=0;entryDy=0;exitX=0.5;exitY=0;exitDx=0;exitDy=0;" parent="1" source="GCyfZZmVZOQjBuuVVlXQ-274" target="GCyfZZmVZOQjBuuVVlXQ-260" edge="1">
          <mxGeometry width="50" height="50" relative="1" as="geometry">
            <mxPoint x="1185" y="860" as="sourcePoint" />
            <mxPoint x="1235" y="850" as="targetPoint" />
          </mxGeometry>
        </mxCell>
        <mxCell id="GCyfZZmVZOQjBuuVVlXQ-276" value="" style="endArrow=none;html=1;rounded=0;entryX=0.5;entryY=1;entryDx=0;entryDy=0;exitX=0.5;exitY=0;exitDx=0;exitDy=0;" parent="1" source="GCyfZZmVZOQjBuuVVlXQ-270" target="GCyfZZmVZOQjBuuVVlXQ-260" edge="1">
          <mxGeometry width="50" height="50" relative="1" as="geometry">
            <mxPoint x="1220" y="940" as="sourcePoint" />
            <mxPoint x="1385" y="850" as="targetPoint" />
          </mxGeometry>
        </mxCell>
        <mxCell id="GCyfZZmVZOQjBuuVVlXQ-277" value="" style="endArrow=none;html=1;rounded=0;entryX=0.5;entryY=1;entryDx=0;entryDy=0;exitX=0.5;exitY=0;exitDx=0;exitDy=0;" parent="1" source="GCyfZZmVZOQjBuuVVlXQ-271" target="GCyfZZmVZOQjBuuVVlXQ-260" edge="1">
          <mxGeometry width="50" height="50" relative="1" as="geometry">
            <mxPoint x="1270" y="940" as="sourcePoint" />
            <mxPoint x="1385" y="850" as="targetPoint" />
          </mxGeometry>
        </mxCell>
        <mxCell id="GCyfZZmVZOQjBuuVVlXQ-278" value="" style="endArrow=none;html=1;rounded=0;entryX=0.5;entryY=1;entryDx=0;entryDy=0;exitX=0.5;exitY=0;exitDx=0;exitDy=0;" parent="1" source="GCyfZZmVZOQjBuuVVlXQ-272" target="GCyfZZmVZOQjBuuVVlXQ-260" edge="1">
          <mxGeometry width="50" height="50" relative="1" as="geometry">
            <mxPoint x="1320" y="940" as="sourcePoint" />
            <mxPoint x="1385" y="850" as="targetPoint" />
          </mxGeometry>
        </mxCell>
        <mxCell id="GCyfZZmVZOQjBuuVVlXQ-279" value="" style="endArrow=none;html=1;rounded=0;entryX=0.5;entryY=1;entryDx=0;entryDy=0;exitX=0.5;exitY=0;exitDx=0;exitDy=0;" parent="1" source="GCyfZZmVZOQjBuuVVlXQ-273" target="GCyfZZmVZOQjBuuVVlXQ-260" edge="1">
          <mxGeometry width="50" height="50" relative="1" as="geometry">
            <mxPoint x="1370" y="940" as="sourcePoint" />
            <mxPoint x="1385" y="850" as="targetPoint" />
          </mxGeometry>
        </mxCell>
        <mxCell id="GCyfZZmVZOQjBuuVVlXQ-280" value="l" style="ellipse;whiteSpace=wrap;html=1;aspect=fixed;" parent="1" vertex="1">
          <mxGeometry x="1205" y="950" width="40" height="40" as="geometry" />
        </mxCell>
        <mxCell id="GCyfZZmVZOQjBuuVVlXQ-281" value="" style="endArrow=none;html=1;rounded=0;entryX=0.5;entryY=1;entryDx=0;entryDy=0;exitX=0.5;exitY=0;exitDx=0;exitDy=0;" parent="1" source="GCyfZZmVZOQjBuuVVlXQ-280" target="GCyfZZmVZOQjBuuVVlXQ-271" edge="1">
          <mxGeometry width="50" height="50" relative="1" as="geometry">
            <mxPoint x="1320" y="950" as="sourcePoint" />
            <mxPoint x="1310" y="980" as="targetPoint" />
          </mxGeometry>
        </mxCell>
        <mxCell id="GCyfZZmVZOQjBuuVVlXQ-302" value="1" style="ellipse;whiteSpace=wrap;html=1;aspect=fixed;" parent="1" vertex="1">
          <mxGeometry x="1430" y="800" width="40" height="40" as="geometry" />
        </mxCell>
        <mxCell id="GCyfZZmVZOQjBuuVVlXQ-303" value="2" style="ellipse;whiteSpace=wrap;html=1;aspect=fixed;" parent="1" vertex="1">
          <mxGeometry x="1530" y="800" width="40" height="40" as="geometry" />
        </mxCell>
        <mxCell id="GCyfZZmVZOQjBuuVVlXQ-304" value="" style="endArrow=none;html=1;rounded=0;entryX=0.5;entryY=1;entryDx=0;entryDy=0;exitX=0.5;exitY=0;exitDx=0;exitDy=0;" parent="1" source="GCyfZZmVZOQjBuuVVlXQ-302" target="GCyfZZmVZOQjBuuVVlXQ-229" edge="1">
          <mxGeometry width="50" height="50" relative="1" as="geometry">
            <mxPoint x="1385" y="910" as="sourcePoint" />
            <mxPoint x="1385" y="850" as="targetPoint" />
          </mxGeometry>
        </mxCell>
        <mxCell id="GCyfZZmVZOQjBuuVVlXQ-305" value="" style="endArrow=none;html=1;rounded=0;entryX=0.5;entryY=1;entryDx=0;entryDy=0;exitX=0.5;exitY=0;exitDx=0;exitDy=0;" parent="1" source="GCyfZZmVZOQjBuuVVlXQ-303" target="GCyfZZmVZOQjBuuVVlXQ-231" edge="1">
          <mxGeometry width="50" height="50" relative="1" as="geometry">
            <mxPoint x="1460" y="810" as="sourcePoint" />
            <mxPoint x="1460" y="790" as="targetPoint" />
          </mxGeometry>
        </mxCell>
      </root>
    </mxGraphModel>
  </diagram>
</mxfile>
